<?xml version="1.0" encoding="UTF-8" standalone="no"?>
<svg
   xmlns:dc="http://purl.org/dc/elements/1.1/"
   xmlns:cc="http://creativecommons.org/ns#"
   xmlns:rdf="http://www.w3.org/1999/02/22-rdf-syntax-ns#"
   xmlns:svg="http://www.w3.org/2000/svg"
   xmlns="http://www.w3.org/2000/svg"
   viewBox="0 0 151.2 151.2"
   height="16"
   width="16"
   xml:space="preserve"
   id="svg2"
   version="1.1"><metadata
     id="metadata8"><rdf:RDF><cc:Work
         rdf:about=""><dc:format>image/svg+xml</dc:format><dc:type
           rdf:resource="http://purl.org/dc/dcmitype/StillImage" /></cc:Work></rdf:RDF></metadata><defs
     id="defs6"><clipPath
       id="clipPath18"
       clipPathUnits="userSpaceOnUse"><path
         style="clip-rule:evenodd"
         id="path16"
         d="M 0,2.2888e-5 H 113.4 V 113.40002 H 0 Z" /></clipPath><clipPath
       id="clipPath28"
       clipPathUnits="userSpaceOnUse"><path
         style="clip-rule:evenodd"
         id="path26"
         d="M -1.5259e-5,113.4 H 113.4 V 2.2888e-5 L -2.2888e-5,1.5259e-5" /></clipPath><clipPath
       id="clipPath38"
       clipPathUnits="userSpaceOnUse"><path
         style="clip-rule:evenodd"
         id="path36"
         d="M -1.5259e-5,113.4 H 113.4 V 2.2888e-5 L -2.2888e-5,1.5259e-5" /></clipPath><clipPath
       id="clipPath48"
       clipPathUnits="userSpaceOnUse"><path
         style="clip-rule:evenodd"
         id="path46"
         d="M -2.2888e-5,113.4 H 113.4 V 1.5259e-5 H -2.2888e-5" /></clipPath><clipPath
       id="clipPath58"
       clipPathUnits="userSpaceOnUse"><path
         style="clip-rule:evenodd"
         id="path56"
         d="M -2.2888e-5,113.4 H 113.4 V 1.5259e-5 H -2.2888e-5" /></clipPath><clipPath
       id="clipPath68"
       clipPathUnits="userSpaceOnUse"><path
         style="clip-rule:evenodd"
         id="path66"
         d="M -7.629e-6,113.4 H 113.4 V 2.2888e-5 H 0" /></clipPath><clipPath
       id="clipPath78"
       clipPathUnits="userSpaceOnUse"><path
         style="clip-rule:evenodd"
         id="path76"
         d="M -7.629e-6,113.4 H 113.4 V 2.2888e-5 H 0" /></clipPath><clipPath
       id="clipPath88"
       clipPathUnits="userSpaceOnUse"><path
         style="clip-rule:evenodd"
         id="path86"
         d="M -7.629e-6,113.4 H 113.4 V 7.629e-6 L 0,0" /></clipPath><clipPath
       id="clipPath98"
       clipPathUnits="userSpaceOnUse"><path
         style="clip-rule:evenodd"
         id="path96"
         d="M -7.629e-6,113.4 H 113.4 V 7.629e-6 L 0,0" /></clipPath><clipPath
       id="clipPath108"
       clipPathUnits="userSpaceOnUse"><path
         style="clip-rule:evenodd"
         id="path106"
         d="M -7.629e-6,113.4 H 113.4 V 7.629e-6 L 0,0" /></clipPath><clipPath
       id="clipPath118"
       clipPathUnits="userSpaceOnUse"><path
         style="clip-rule:evenodd"
         id="path116"
         d="M -7.629e-6,113.4 H 113.4 V 7.629e-6 L 0,0" /></clipPath><clipPath
       id="clipPath128"
       clipPathUnits="userSpaceOnUse"><path
         style="clip-rule:evenodd"
         id="path126"
         d="M 7.629e-6,113.4 H 113.4 V 4.5776e-5 L 7.629e-6,3.0518e-5" /></clipPath><clipPath
       id="clipPath138"
       clipPathUnits="userSpaceOnUse"><path
         style="clip-rule:evenodd"
         id="path136"
         d="M 7.629e-6,113.4 H 113.4 V 4.5776e-5 L 7.629e-6,3.0518e-5" /></clipPath><clipPath
       id="clipPath148"
       clipPathUnits="userSpaceOnUse"><path
         style="clip-rule:evenodd"
         id="path146"
         d="M 0,113.4 H 113.4 V 4.5776e-5 L 0,3.0518e-5" /></clipPath><clipPath
       id="clipPath158"
       clipPathUnits="userSpaceOnUse"><path
         style="clip-rule:evenodd"
         id="path156"
         d="M 0,113.4 H 113.4 V 4.5776e-5 L 0,3.0518e-5" /></clipPath><clipPath
       id="clipPath168"
       clipPathUnits="userSpaceOnUse"><path
         style="clip-rule:evenodd"
         id="path166"
         d="M 0,113.4 H 113.4 V 4.5776e-5 L 7.629e-6,3.0518e-5" /></clipPath><clipPath
       id="clipPath178"
       clipPathUnits="userSpaceOnUse"><path
         style="clip-rule:evenodd"
         id="path176"
         d="M 0,113.4 H 113.4 V 4.5776e-5 L 7.629e-6,3.0518e-5" /></clipPath><clipPath
       id="clipPath188"
       clipPathUnits="userSpaceOnUse"><path
         style="clip-rule:evenodd"
         id="path186"
         d="M -7.629e-6,113.4 H 113.4 V 7.629e-6 L -7.629e-6,0" /></clipPath><clipPath
       id="clipPath198"
       clipPathUnits="userSpaceOnUse"><path
         style="clip-rule:evenodd"
         id="path196"
         d="M -7.629e-6,113.4 H 113.4 V 7.629e-6 L -7.629e-6,0" /></clipPath><clipPath
       id="clipPath232"
       clipPathUnits="userSpaceOnUse"><path
         style="clip-rule:evenodd"
         id="path230"
         d="M 0,113.4 H 113.4 V 7.629e-6 L -3.815e-6,2.2888e-5" /></clipPath><clipPath
       id="clipPath242"
       clipPathUnits="userSpaceOnUse"><path
         style="clip-rule:evenodd"
         id="path240"
         d="M 0,113.4 H 113.4 V 7.629e-6 L -3.815e-6,2.2888e-5" /></clipPath><clipPath
       id="clipPath252"
       clipPathUnits="userSpaceOnUse"><path
         style="clip-rule:evenodd"
         id="path250"
         d="M 3.815e-6,113.4 H 113.4 V 7.629e-6 L 0,2.2888e-5" /></clipPath><clipPath
       id="clipPath262"
       clipPathUnits="userSpaceOnUse"><path
         style="clip-rule:evenodd"
         id="path260"
         d="M 3.815e-6,113.4 H 113.4 V 7.629e-6 L 0,2.2888e-5" /></clipPath><clipPath
       id="clipPath272"
       clipPathUnits="userSpaceOnUse"><path
         style="clip-rule:evenodd"
         id="path270"
         d="M -3.815e-6,113.4 H 113.4 V 7.629e-6 H -1.3351e-5" /></clipPath><clipPath
       id="clipPath282"
       clipPathUnits="userSpaceOnUse"><path
         style="clip-rule:evenodd"
         id="path280"
         d="M -3.815e-6,113.4 H 113.4 V 7.629e-6 H -1.3351e-5" /></clipPath><clipPath
       id="clipPath292"
       clipPathUnits="userSpaceOnUse"><path
         style="clip-rule:evenodd"
         id="path290"
         d="M -2.861e-6,113.4 H 113.4 V 7.629e-6 H -1.2398e-5" /></clipPath><clipPath
       id="clipPath302"
       clipPathUnits="userSpaceOnUse"><path
         style="clip-rule:evenodd"
         id="path300"
         d="M -2.861e-6,113.4 H 113.4 V 7.629e-6 H -1.2398e-5" /></clipPath><clipPath
       id="clipPath312"
       clipPathUnits="userSpaceOnUse"><path
         style="clip-rule:evenodd"
         id="path310"
         d="M -3.815e-6,113.4 H 113.4 V 1.5259e-5 L -1.1444e-5,7.629e-6" /></clipPath><clipPath
       id="clipPath322"
       clipPathUnits="userSpaceOnUse"><path
         style="clip-rule:evenodd"
         id="path320"
         d="M -3.815e-6,113.4 H 113.4 V 1.5259e-5 L -1.1444e-5,7.629e-6" /></clipPath><clipPath
       id="clipPath332"
       clipPathUnits="userSpaceOnUse"><path
         style="clip-rule:evenodd"
         id="path330"
         d="M 7.629e-6,113.4 H 113.4 V 7.629e-6 L 7.629e-6,1.5259e-5" /></clipPath><clipPath
       id="clipPath342"
       clipPathUnits="userSpaceOnUse"><path
         style="clip-rule:evenodd"
         id="path340"
         d="M 7.629e-6,113.4 H 113.4 V 7.629e-6 L 7.629e-6,1.5259e-5" /></clipPath><clipPath
       id="clipPath352"
       clipPathUnits="userSpaceOnUse"><path
         style="clip-rule:evenodd"
         id="path350"
         d="M -7.629e-6,113.4 H 113.4 V 3.0518e-5 L 0,2.2888e-5" /></clipPath><clipPath
       id="clipPath362"
       clipPathUnits="userSpaceOnUse"><path
         style="clip-rule:evenodd"
         id="path360"
         d="M -7.629e-6,113.4 H 113.4 V 3.0518e-5 L 0,2.2888e-5" /></clipPath><clipPath
       id="clipPath372"
       clipPathUnits="userSpaceOnUse"><path
         style="clip-rule:evenodd"
         id="path370"
         d="M -1.907e-6,113.4 H 113.4 V 3.8147e-5 L 5.722e-6,1.5259e-5" /></clipPath><clipPath
       id="clipPath382"
       clipPathUnits="userSpaceOnUse"><path
         style="clip-rule:evenodd"
         id="path380"
         d="M -1.907e-6,113.4 H 113.4 V 3.8147e-5 L 5.722e-6,1.5259e-5" /></clipPath><clipPath
       id="clipPath392"
       clipPathUnits="userSpaceOnUse"><path
         style="clip-rule:evenodd"
         id="path390"
         d="M -1.907e-6,113.4 H 113.4 V 7.629e-6 L 5.722e-6,0" /></clipPath><clipPath
       id="clipPath402"
       clipPathUnits="userSpaceOnUse"><path
         style="clip-rule:evenodd"
         id="path400"
         d="M -1.907e-6,113.4 H 113.4 V 7.629e-6 L 5.722e-6,0" /></clipPath><clipPath
       id="clipPath412"
       clipPathUnits="userSpaceOnUse"><path
         style="clip-rule:evenodd"
         id="path410"
         d="M 3.815e-6,113.4 H 113.4 V 0 L 1.5259e-5,-7.629e-6" /></clipPath><clipPath
       id="clipPath422"
       clipPathUnits="userSpaceOnUse"><path
         style="clip-rule:evenodd"
         id="path420"
         d="M 3.815e-6,113.4 H 113.4 V 0 L 1.5259e-5,-7.629e-6" /></clipPath><clipPath
       id="clipPath432"
       clipPathUnits="userSpaceOnUse"><path
         style="clip-rule:evenodd"
         id="path430"
         d="M 0,113.4 H 113.4 V 7.629e-6 L 1.1444e-5,0" /></clipPath><clipPath
       id="clipPath442"
       clipPathUnits="userSpaceOnUse"><path
         style="clip-rule:evenodd"
         id="path440"
         d="M 0,113.4 H 113.4 V 7.629e-6 L 1.1444e-5,0" /></clipPath><clipPath
       id="clipPath452"
       clipPathUnits="userSpaceOnUse"><path
         style="clip-rule:evenodd"
         id="path450"
         d="M 0,113.4 H 113.4 V 3.8147e-5 L 7.629e-6,3.0518e-5" /></clipPath><clipPath
       id="clipPath462"
       clipPathUnits="userSpaceOnUse"><path
         style="clip-rule:evenodd"
         id="path460"
         d="M 0,113.4 H 113.4 V 3.8147e-5 L 7.629e-6,3.0518e-5" /></clipPath><clipPath
       id="clipPath496"
       clipPathUnits="userSpaceOnUse"><path
         style="clip-rule:evenodd"
         id="path494"
         d="M -1.1444e-5,113.4 H 113.4 V 1.5259e-5 H -1.1444e-5" /></clipPath><clipPath
       id="clipPath506"
       clipPathUnits="userSpaceOnUse"><path
         style="clip-rule:evenodd"
         id="path504"
         d="M -1.1444e-5,113.4 H 113.4 V 1.5259e-5 H -1.1444e-5" /></clipPath><clipPath
       id="clipPath516"
       clipPathUnits="userSpaceOnUse"><path
         style="clip-rule:evenodd"
         id="path514"
         d="M 0,113.4 H 113.4 V 7.629e-6 L 0,1.5259e-5" /></clipPath><clipPath
       id="clipPath526"
       clipPathUnits="userSpaceOnUse"><path
         style="clip-rule:evenodd"
         id="path524"
         d="M 0,113.4 H 113.4 V 7.629e-6 L 0,1.5259e-5" /></clipPath><clipPath
       id="clipPath536"
       clipPathUnits="userSpaceOnUse"><path
         style="clip-rule:evenodd"
         id="path534"
         d="M -7.629e-6,113.4 H 113.4 V 1.5259e-5 L 0,2.2888e-5" /></clipPath><clipPath
       id="clipPath546"
       clipPathUnits="userSpaceOnUse"><path
         style="clip-rule:evenodd"
         id="path544"
         d="M -7.629e-6,113.4 H 113.4 V 1.5259e-5 L 0,2.2888e-5" /></clipPath></defs><g
     transform="matrix(1.3333333,0,0,-1.3333333,0,151.2)"
     id="g10"><g
       id="g12"><g
         clip-path="url(#clipPath18)"
         id="g14"><path
           id="path20"
           style="fill:#ffffff00;fill-opacity:1;fill-rule:evenodd;stroke:none"
           d="M 0,7.629e-6 H 113.4 V 113.40001 H 0 Z" /></g></g><g
       id="g22"><g
         clip-path="url(#clipPath28)"
         id="g24"><path
           id="path30"
           style="fill:#9dc3e6;fill-opacity:1;fill-rule:evenodd;stroke:none"
           d="M 79.963,43.42 69.847,61.243 90.34,61.174 Z" /></g></g><g
       id="g32"><g
         clip-path="url(#clipPath38)"
         id="g34"><path
           id="path40"
           style="fill:none;stroke:#41719c;stroke-width:1;stroke-linecap:butt;stroke-linejoin:round;stroke-miterlimit:10;stroke-dasharray:none;stroke-opacity:1"
           d="M 79.963,43.42 69.847,61.243 90.34,61.174 Z" /></g></g><g
       id="g42"><g
         clip-path="url(#clipPath48)"
         id="g44"><path
           id="path50"
           style="fill:#bdd7ee;fill-opacity:1;fill-rule:evenodd;stroke:none"
           d="M 90.079,25.598 79.963,43.42 100.46,43.351 Z" /></g></g><g
       id="g52"><g
         clip-path="url(#clipPath58)"
         id="g54"><path
           id="path60"
           style="fill:none;stroke:#41719c;stroke-width:1;stroke-linecap:butt;stroke-linejoin:round;stroke-miterlimit:10;stroke-dasharray:none;stroke-opacity:1"
           d="M 90.079,25.598 79.963,43.42 100.46,43.351 Z" /></g></g><g
       id="g62"><g
         clip-path="url(#clipPath68)"
         id="g64"><path
           id="path70"
           style="fill:#deebf7;fill-opacity:1;fill-rule:evenodd;stroke:none"
           d="M 90.34,61.174 100.46,43.351 79.963,43.42 Z" /></g></g><g
       id="g72"><g
         clip-path="url(#clipPath78)"
         id="g74"><path
           id="path80"
           style="fill:none;stroke:#41719c;stroke-width:1;stroke-linecap:butt;stroke-linejoin:round;stroke-miterlimit:10;stroke-dasharray:none;stroke-opacity:1"
           d="M 90.34,61.174 100.46,43.351 79.963,43.42 Z" /></g></g><g
       id="g82"><g
         clip-path="url(#clipPath88)"
         id="g84"><path
           id="path90"
           style="fill:#9dc3e6;fill-opacity:1;fill-rule:evenodd;stroke:none"
           d="M 79.787,70.103 59.293,70.144 69.505,87.912 Z" /></g></g><g
       id="g92"><g
         clip-path="url(#clipPath98)"
         id="g94"><path
           id="path100"
           style="fill:none;stroke:#41719c;stroke-width:1;stroke-linecap:butt;stroke-linejoin:round;stroke-miterlimit:10;stroke-dasharray:none;stroke-opacity:1"
           d="M 79.787,70.103 59.293,70.144 69.505,87.912 Z" /></g></g><g
       id="g102"><g
         clip-path="url(#clipPath108)"
         id="g104"><path
           id="path110"
           style="fill:#bdd7ee;fill-opacity:1;fill-rule:evenodd;stroke:none"
           d="M 100.28,70.062 79.786,70.103 89.998,87.871 Z" /></g></g><g
       id="g112"><g
         clip-path="url(#clipPath118)"
         id="g114"><path
           id="path120"
           style="fill:none;stroke:#41719c;stroke-width:1;stroke-linecap:butt;stroke-linejoin:round;stroke-miterlimit:10;stroke-dasharray:none;stroke-opacity:1"
           d="M 100.28,70.062 79.786,70.103 89.998,87.871 Z" /></g></g><g
       id="g122"><g
         clip-path="url(#clipPath128)"
         id="g124"><path
           id="path130"
           style="fill:#deebf7;fill-opacity:1;fill-rule:evenodd;stroke:none"
           d="M 79.786,70.103 100.28,70.062 90.068,52.294 Z" /></g></g><g
       id="g132"><g
         clip-path="url(#clipPath138)"
         id="g134"><path
           id="path140"
           style="fill:none;stroke:#41719c;stroke-width:1;stroke-linecap:butt;stroke-linejoin:round;stroke-miterlimit:10;stroke-dasharray:none;stroke-opacity:1"
           d="M 79.786,70.103 100.28,70.062 90.068,52.294 Z" /></g></g><g
       id="g142"><g
         clip-path="url(#clipPath148)"
         id="g144"><path
           id="path150"
           style="fill:#deebf7;fill-opacity:1;fill-rule:evenodd;stroke:none"
           d="M 69.504,87.912 89.998,87.871 79.786,70.103 Z" /></g></g><g
       id="g152"><g
         clip-path="url(#clipPath158)"
         id="g154"><path
           id="path160"
           style="fill:none;stroke:#41719c;stroke-width:1;stroke-linecap:butt;stroke-linejoin:round;stroke-miterlimit:10;stroke-dasharray:none;stroke-opacity:1"
           d="M 69.504,87.912 89.998,87.871 79.786,70.103 Z" /></g></g><g
       id="g162"><g
         clip-path="url(#clipPath168)"
         id="g164"><path
           id="path170"
           style="fill:#deebf7;fill-opacity:1;fill-rule:evenodd;stroke:none"
           d="M 59.293,70.144 79.786,70.103 69.575,52.335 Z" /></g></g><g
       id="g172"><g
         clip-path="url(#clipPath178)"
         id="g174"><path
           id="path180"
           style="fill:none;stroke:#41719c;stroke-width:1;stroke-linecap:butt;stroke-linejoin:round;stroke-miterlimit:10;stroke-dasharray:none;stroke-opacity:1"
           d="M 59.293,70.144 79.786,70.103 69.575,52.335 Z" /></g></g><g
       id="g182"><g
         clip-path="url(#clipPath188)"
         id="g184"><path
           id="path190"
           style="fill:#9dc3e6;fill-opacity:1;fill-rule:evenodd;stroke:none"
           d="M 90.085,52.265 69.592,52.306 79.803,70.074 Z" /></g></g><g
       id="g192"><g
         clip-path="url(#clipPath198)"
         id="g194"><path
           id="path200"
           style="fill:none;stroke:#41719c;stroke-width:1;stroke-linecap:butt;stroke-linejoin:round;stroke-miterlimit:10;stroke-dasharray:none;stroke-opacity:1"
           d="M 90.085,52.265 69.592,52.306 79.803,70.074 Z" /></g></g><path
       id="path202"
       style="fill:#9dc3e6;fill-opacity:1;fill-rule:evenodd;stroke:none"
       d="M 56.64,83.4 46.38,65.64 36.12,83.4 Z" /><path
       id="path204"
       style="fill:none;stroke:#41719c;stroke-width:0.95999998;stroke-linecap:butt;stroke-linejoin:round;stroke-miterlimit:10;stroke-dasharray:none;stroke-opacity:1"
       d="M 56.64,83.4 46.38,65.64 36.12,83.4 Z" /><path
       id="path206"
       style="fill:#bdd7ee;fill-opacity:1;fill-rule:evenodd;stroke:none"
       d="M 66.96,101.16 56.64,83.4 46.32,101.16 Z" /><path
       id="path208"
       style="fill:none;stroke:#41719c;stroke-width:0.95999998;stroke-linecap:butt;stroke-linejoin:round;stroke-miterlimit:10;stroke-dasharray:none;stroke-opacity:1"
       d="M 66.96,101.16 56.64,83.4 46.32,101.16 Z" /><path
       id="path210"
       style="fill:#deebf7;fill-opacity:1;fill-rule:evenodd;stroke:none"
       d="M 56.64,83.4 66.96,101.16 77.28,83.4 Z" /><path
       id="path212"
       style="fill:none;stroke:#41719c;stroke-width:0.95999998;stroke-linecap:butt;stroke-linejoin:round;stroke-miterlimit:10;stroke-dasharray:none;stroke-opacity:1"
       d="M 56.64,83.4 66.96,101.16 77.28,83.4 Z" /><path
       id="path214"
       style="fill:#deebf7;fill-opacity:1;fill-rule:evenodd;stroke:none"
       d="M 36.12,83.4 46.38,101.16 56.64,83.4 Z" /><path
       id="path216"
       style="fill:none;stroke:#41719c;stroke-width:0.95999998;stroke-linecap:butt;stroke-linejoin:round;stroke-miterlimit:10;stroke-dasharray:none;stroke-opacity:1"
       d="M 36.12,83.4 46.38,101.16 56.64,83.4 Z" /><path
       id="path218"
       style="fill:#deebf7;fill-opacity:1;fill-rule:evenodd;stroke:none"
       d="M 46.32,65.64 56.64,83.4 66.96,65.64 Z" /><path
       id="path220"
       style="fill:none;stroke:#41719c;stroke-width:0.95999998;stroke-linecap:butt;stroke-linejoin:round;stroke-miterlimit:10;stroke-dasharray:none;stroke-opacity:1"
       d="M 46.32,65.64 56.64,83.4 66.96,65.64 Z" /><path
       id="path222"
       style="fill:#9dc3e6;fill-opacity:1;fill-rule:evenodd;stroke:none"
       d="M 77.28,83.4 66.96,65.64 56.64,83.4 Z" /><path
       id="path224"
       style="fill:none;stroke:#41719c;stroke-width:0.95999998;stroke-linecap:butt;stroke-linejoin:round;stroke-miterlimit:10;stroke-dasharray:none;stroke-opacity:1"
       d="M 77.28,83.4 66.96,65.64 56.64,83.4 Z" /><g
       id="g226"><g
         clip-path="url(#clipPath232)"
         id="g228"><path
           id="path234"
           style="fill:#9dc3e6;fill-opacity:1;fill-rule:evenodd;stroke:none"
           d="M 33.73,70.074 43.941,52.306 23.448,52.265 Z" /></g></g><g
       id="g236"><g
         clip-path="url(#clipPath242)"
         id="g238"><path
           id="path244"
           style="fill:none;stroke:#41719c;stroke-width:1;stroke-linecap:butt;stroke-linejoin:round;stroke-miterlimit:10;stroke-dasharray:none;stroke-opacity:1"
           d="M 33.73,70.074 43.941,52.306 23.448,52.265 Z" /></g></g><g
       id="g246"><g
         clip-path="url(#clipPath252)"
         id="g248"><path
           id="path254"
           style="fill:#bdd7ee;fill-opacity:1;fill-rule:evenodd;stroke:none"
           d="M 23.519,87.842 33.73,70.074 13.237,70.033 Z" /></g></g><g
       id="g256"><g
         clip-path="url(#clipPath262)"
         id="g258"><path
           id="path264"
           style="fill:none;stroke:#41719c;stroke-width:1;stroke-linecap:butt;stroke-linejoin:round;stroke-miterlimit:10;stroke-dasharray:none;stroke-opacity:1"
           d="M 23.519,87.842 33.73,70.074 13.237,70.033 Z" /></g></g><g
       id="g266"><g
         clip-path="url(#clipPath272)"
         id="g268"><path
           id="path274"
           style="fill:#deebf7;fill-opacity:1;fill-rule:evenodd;stroke:none"
           d="M 33.73,70.074 23.519,87.842 44.012,87.883 Z" /></g></g><g
       id="g276"><g
         clip-path="url(#clipPath282)"
         id="g278"><path
           id="path284"
           style="fill:none;stroke:#41719c;stroke-width:1;stroke-linecap:butt;stroke-linejoin:round;stroke-miterlimit:10;stroke-dasharray:none;stroke-opacity:1"
           d="M 33.73,70.074 23.519,87.842 44.012,87.883 Z" /></g></g><g
       id="g286"><g
         clip-path="url(#clipPath292)"
         id="g288"><path
           id="path294"
           style="fill:#deebf7;fill-opacity:1;fill-rule:evenodd;stroke:none"
           d="M 23.448,52.265 13.237,70.033 33.73,70.074 Z" /></g></g><g
       id="g296"><g
         clip-path="url(#clipPath302)"
         id="g298"><path
           id="path304"
           style="fill:none;stroke:#41719c;stroke-width:1;stroke-linecap:butt;stroke-linejoin:round;stroke-miterlimit:10;stroke-dasharray:none;stroke-opacity:1"
           d="M 23.448,52.265 13.237,70.033 33.73,70.074 Z" /></g></g><g
       id="g306"><g
         clip-path="url(#clipPath312)"
         id="g308"><path
           id="path314"
           style="fill:#deebf7;fill-opacity:1;fill-rule:evenodd;stroke:none"
           d="M 43.941,52.306 33.73,70.074 54.223,70.115 Z" /></g></g><g
       id="g316"><g
         clip-path="url(#clipPath322)"
         id="g318"><path
           id="path324"
           style="fill:none;stroke:#41719c;stroke-width:1;stroke-linecap:butt;stroke-linejoin:round;stroke-miterlimit:10;stroke-dasharray:none;stroke-opacity:1"
           d="M 43.941,52.306 33.73,70.074 54.223,70.115 Z" /></g></g><g
       id="g326"><g
         clip-path="url(#clipPath332)"
         id="g328"><path
           id="path334"
           style="fill:#9dc3e6;fill-opacity:1;fill-rule:evenodd;stroke:none"
           d="M 44.029,87.912 54.24,70.144 33.747,70.103 Z" /></g></g><g
       id="g336"><g
         clip-path="url(#clipPath342)"
         id="g338"><path
           id="path344"
           style="fill:none;stroke:#41719c;stroke-width:1;stroke-linecap:butt;stroke-linejoin:round;stroke-miterlimit:10;stroke-dasharray:none;stroke-opacity:1"
           d="M 44.029,87.912 54.24,70.144 33.747,70.103 Z" /></g></g><g
       id="g346"><g
         clip-path="url(#clipPath352)"
         id="g348"><path
           id="path354"
           style="fill:#9dc3e6;fill-opacity:1;fill-rule:evenodd;stroke:none"
           d="M 33.587,43.391 54.081,43.35 43.869,25.582 Z" /></g></g><g
       id="g356"><g
         clip-path="url(#clipPath362)"
         id="g358"><path
           id="path364"
           style="fill:none;stroke:#41719c;stroke-width:1;stroke-linecap:butt;stroke-linejoin:round;stroke-miterlimit:10;stroke-dasharray:none;stroke-opacity:1"
           d="M 33.587,43.391 54.081,43.35 43.869,25.582 Z" /></g></g><g
       id="g366"><g
         clip-path="url(#clipPath372)"
         id="g368"><path
           id="path374"
           style="fill:#bdd7ee;fill-opacity:1;fill-rule:evenodd;stroke:none"
           d="M 13.094,43.432 33.587,43.391 23.376,25.623 Z" /></g></g><g
       id="g376"><g
         clip-path="url(#clipPath382)"
         id="g378"><path
           id="path384"
           style="fill:none;stroke:#41719c;stroke-width:1;stroke-linecap:butt;stroke-linejoin:round;stroke-miterlimit:10;stroke-dasharray:none;stroke-opacity:1"
           d="M 13.094,43.432 33.587,43.391 23.376,25.623 Z" /></g></g><g
       id="g386"><g
         clip-path="url(#clipPath392)"
         id="g388"><path
           id="path394"
           style="fill:#deebf7;fill-opacity:1;fill-rule:evenodd;stroke:none"
           d="M 33.587,43.391 13.094,43.432 23.305,61.2 Z" /></g></g><g
       id="g396"><g
         clip-path="url(#clipPath402)"
         id="g398"><path
           id="path404"
           style="fill:none;stroke:#41719c;stroke-width:1;stroke-linecap:butt;stroke-linejoin:round;stroke-miterlimit:10;stroke-dasharray:none;stroke-opacity:1"
           d="M 33.587,43.391 13.094,43.432 23.305,61.2 Z" /></g></g><g
       id="g406"><g
         clip-path="url(#clipPath412)"
         id="g408"><path
           id="path414"
           style="fill:#deebf7;fill-opacity:1;fill-rule:evenodd;stroke:none"
           d="M 43.869,25.582 23.376,25.623 33.587,43.391 Z" /></g></g><g
       id="g416"><g
         clip-path="url(#clipPath422)"
         id="g418"><path
           id="path424"
           style="fill:none;stroke:#41719c;stroke-width:1;stroke-linecap:butt;stroke-linejoin:round;stroke-miterlimit:10;stroke-dasharray:none;stroke-opacity:1"
           d="M 43.869,25.582 23.376,25.623 33.587,43.391 Z" /></g></g><g
       id="g426"><g
         clip-path="url(#clipPath432)"
         id="g428"><path
           id="path434"
           style="fill:#deebf7;fill-opacity:1;fill-rule:evenodd;stroke:none"
           d="M 54.081,43.35 33.587,43.391 43.799,61.159 Z" /></g></g><g
       id="g436"><g
         clip-path="url(#clipPath442)"
         id="g438"><path
           id="path444"
           style="fill:none;stroke:#41719c;stroke-width:1;stroke-linecap:butt;stroke-linejoin:round;stroke-miterlimit:10;stroke-dasharray:none;stroke-opacity:1"
           d="M 54.081,43.35 33.587,43.391 43.799,61.159 Z" /></g></g><g
       id="g446"><g
         clip-path="url(#clipPath452)"
         id="g448"><path
           id="path454"
           style="fill:#9dc3e6;fill-opacity:1;fill-rule:evenodd;stroke:none"
           d="M 23.289,61.229 43.782,61.188 33.57,43.42 Z" /></g></g><g
       id="g456"><g
         clip-path="url(#clipPath462)"
         id="g458"><path
           id="path464"
           style="fill:none;stroke:#41719c;stroke-width:1;stroke-linecap:butt;stroke-linejoin:round;stroke-miterlimit:10;stroke-dasharray:none;stroke-opacity:1"
           d="M 23.289,61.229 43.782,61.188 33.57,43.42 Z" /></g></g><path
       id="path466"
       style="fill:#9dc3e6;fill-opacity:1;fill-rule:evenodd;stroke:none"
       d="M 56.64,30.12 66.96,47.76 77.28,30.12 Z" /><path
       id="path468"
       style="fill:none;stroke:#41719c;stroke-width:0.95999998;stroke-linecap:butt;stroke-linejoin:round;stroke-miterlimit:10;stroke-dasharray:none;stroke-opacity:1"
       d="M 56.64,30.12 66.96,47.76 77.28,30.12 Z" /><path
       id="path470"
       style="fill:#bdd7ee;fill-opacity:1;fill-rule:evenodd;stroke:none"
       d="M 46.44,12.36 56.7,30.12 66.96,12.36 Z" /><path
       id="path472"
       style="fill:none;stroke:#41719c;stroke-width:0.95999998;stroke-linecap:butt;stroke-linejoin:round;stroke-miterlimit:10;stroke-dasharray:none;stroke-opacity:1"
       d="M 46.44,12.36 56.7,30.12 66.96,12.36 Z" /><path
       id="path474"
       style="fill:#deebf7;fill-opacity:1;fill-rule:evenodd;stroke:none"
       d="M 56.64,30.12 46.38,12.36 36.12,30.12 Z" /><path
       id="path476"
       style="fill:none;stroke:#41719c;stroke-width:0.95999998;stroke-linecap:butt;stroke-linejoin:round;stroke-miterlimit:10;stroke-dasharray:none;stroke-opacity:1"
       d="M 56.64,30.12 46.38,12.36 36.12,30.12 Z" /><path
       id="path478"
       style="fill:#deebf7;fill-opacity:1;fill-rule:evenodd;stroke:none"
       d="M 77.28,30.12 66.96,12.36 56.64,30.12 Z" /><path
       id="path480"
       style="fill:none;stroke:#41719c;stroke-width:0.95999998;stroke-linecap:butt;stroke-linejoin:round;stroke-miterlimit:10;stroke-dasharray:none;stroke-opacity:1"
       d="M 77.28,30.12 66.96,12.36 56.64,30.12 Z" /><path
       id="path482"
       style="fill:#deebf7;fill-opacity:1;fill-rule:evenodd;stroke:none"
       d="M 66.96,47.76 56.7,30.12 46.44,47.76 Z" /><path
       id="path484"
       style="fill:none;stroke:#41719c;stroke-width:0.95999998;stroke-linecap:butt;stroke-linejoin:round;stroke-miterlimit:10;stroke-dasharray:none;stroke-opacity:1"
       d="M 66.96,47.76 56.7,30.12 46.44,47.76 Z" /><path
       id="path486"
       style="fill:#9dc3e6;fill-opacity:1;fill-rule:evenodd;stroke:none"
       d="M 36.12,30.12 46.38,47.76 56.64,30.12 Z" /><path
       id="path488"
       style="fill:none;stroke:#41719c;stroke-width:0.95999998;stroke-linecap:butt;stroke-linejoin:round;stroke-miterlimit:10;stroke-dasharray:none;stroke-opacity:1"
       d="M 36.12,30.12 46.38,47.76 56.64,30.12 Z" /><g
       id="g490"><g
         clip-path="url(#clipPath496)"
         id="g492"><path
           id="path498"
           style="fill:#9dc3e6;fill-opacity:1;fill-rule:evenodd;stroke:none"
           d="M 69.569,25.638 59.453,43.461 79.946,43.391 Z" /></g></g><g
       id="g500"><g
         clip-path="url(#clipPath506)"
         id="g502"><path
           id="path508"
           style="fill:none;stroke:#41719c;stroke-width:1;stroke-linecap:butt;stroke-linejoin:round;stroke-miterlimit:10;stroke-dasharray:none;stroke-opacity:1"
           d="M 69.569,25.638 59.453,43.461 79.946,43.391 Z" /></g></g><g
       id="g510"><g
         clip-path="url(#clipPath516)"
         id="g512"><path
           id="path518"
           style="fill:#deebf7;fill-opacity:1;fill-rule:evenodd;stroke:none"
           d="M 79.963,43.42 90.079,25.598 69.586,25.667 Z" /></g></g><g
       id="g520"><g
         clip-path="url(#clipPath526)"
         id="g522"><path
           id="path528"
           style="fill:none;stroke:#41719c;stroke-width:1;stroke-linecap:butt;stroke-linejoin:round;stroke-miterlimit:10;stroke-dasharray:none;stroke-opacity:1"
           d="M 79.963,43.42 90.079,25.598 69.586,25.667 Z" /></g></g><g
       id="g530"><g
         clip-path="url(#clipPath536)"
         id="g532"><path
           id="path538"
           style="fill:#deebf7;fill-opacity:1;fill-rule:evenodd;stroke:none"
           d="M 69.547,52.093 75,52.2 79.963,43.42 59.47,43.49 66.9,56.55 Z" /></g></g><g
       id="g540"><g
         clip-path="url(#clipPath546)"
         id="g542"><path
           id="path548"
           style="fill:none;stroke:#41719c;stroke-width:1;stroke-linecap:butt;stroke-linejoin:round;stroke-miterlimit:10;stroke-dasharray:none;stroke-opacity:1"
           d="M 69.547,52.093 75,52.2 79.963,43.42 59.47,43.49 66.9,56.55 Z" /></g></g></g></svg>