<?xml version="1.0" encoding="UTF-8" standalone="no"?>
<svg
   viewBox="0 0 604.64001 151.2"
   height="20"
   width="80"
   xml:space="preserve"
   id="svg2"
   version="1.1"
   sodipodi:docname="banner.svg"
   inkscape:version="1.4 (86a8ad7, 2024-10-11)"
   xmlns:inkscape="http://www.inkscape.org/namespaces/inkscape"
   xmlns:sodipodi="http://sodipodi.sourceforge.net/DTD/sodipodi-0.dtd"
   xmlns="http://www.w3.org/2000/svg"
   xmlns:svg="http://www.w3.org/2000/svg"
   xmlns:rdf="http://www.w3.org/1999/02/22-rdf-syntax-ns#"
   xmlns:cc="http://creativecommons.org/ns#"
   xmlns:dc="http://purl.org/dc/elements/1.1/"><sodipodi:namedview
     id="namedview1"
     pagecolor="#ffffff"
     bordercolor="#000000"
     borderopacity="0.25"
     inkscape:showpageshadow="2"
     inkscape:pageopacity="0.0"
     inkscape:pagecheckerboard="0"
     inkscape:deskcolor="#d1d1d1"
     inkscape:zoom="11.08125"
     inkscape:cx="27.523971"
     inkscape:cy="-2.0304569"
     inkscape:window-width="1920"
     inkscape:window-height="991"
     inkscape:window-x="-9"
     inkscape:window-y="-9"
     inkscape:window-maximized="1"
     inkscape:current-layer="g10" /><metadata
     id="metadata8"><rdf:RDF><cc:Work
         rdf:about=""><dc:format>image/svg+xml</dc:format><dc:type
           rdf:resource="http://purl.org/dc/dcmitype/StillImage" /></cc:Work></rdf:RDF></metadata><defs
     id="defs6"><clipPath
       id="clipPath18"
       clipPathUnits="userSpaceOnUse"><path
         style="clip-rule:evenodd"
         id="path16"
         d="M 0,2.2888e-5 H 453.48 V 113.40002 H 0 Z" /></clipPath><clipPath
       id="clipPath28"
       clipPathUnits="userSpaceOnUse"><path
         style="clip-rule:evenodd"
         id="path26"
         d="M 6.757e-6,0 H 453.48001 V 113.4 H 6.757e-6 Z" /></clipPath><clipPath
       id="clipPath40"
       clipPathUnits="userSpaceOnUse"><path
         style="clip-rule:evenodd"
         id="path38"
         d="M 6.757e-6,0 H 453.48001 V 113.4 H 6.757e-6 Z" /></clipPath><clipPath
       id="clipPath52"
       clipPathUnits="userSpaceOnUse"><path
         style="clip-rule:evenodd"
         id="path50"
         d="M 6.757e-6,0 H 453.48001 V 113.4 H 6.757e-6 Z" /></clipPath><clipPath
       id="clipPath94"
       clipPathUnits="userSpaceOnUse"><path
         style="clip-rule:evenodd"
         id="path92"
         d="M -1.5259e-5,113.4 H 453.48 V 2.2888e-5 L -3.0518e-5,1.5259e-5" /></clipPath><clipPath
       id="clipPath104"
       clipPathUnits="userSpaceOnUse"><path
         style="clip-rule:evenodd"
         id="path102"
         d="M -1.5259e-5,113.4 H 453.48 V 2.2888e-5 L -3.0518e-5,1.5259e-5" /></clipPath><clipPath
       id="clipPath114"
       clipPathUnits="userSpaceOnUse"><path
         style="clip-rule:evenodd"
         id="path112"
         d="M -1.5259e-5,113.4 H 453.48 V 3.8147e-5 L -3.0518e-5,7.629e-6" /></clipPath><clipPath
       id="clipPath124"
       clipPathUnits="userSpaceOnUse"><path
         style="clip-rule:evenodd"
         id="path122"
         d="M -1.5259e-5,113.4 H 453.48 V 3.8147e-5 L -3.0518e-5,7.629e-6" /></clipPath><clipPath
       id="clipPath134"
       clipPathUnits="userSpaceOnUse"><path
         style="clip-rule:evenodd"
         id="path132"
         d="M 0,113.4 H 453.48 V 7.629e-6 L 0,3.0518e-5" /></clipPath><clipPath
       id="clipPath144"
       clipPathUnits="userSpaceOnUse"><path
         style="clip-rule:evenodd"
         id="path142"
         d="M 0,113.4 H 453.48 V 7.629e-6 L 0,3.0518e-5" /></clipPath><clipPath
       id="clipPath154"
       clipPathUnits="userSpaceOnUse"><path
         style="clip-rule:evenodd"
         id="path152"
         d="M -7.629e-6,113.4 H 453.48 V 7.629e-6 L 7.629e-6,3.8147e-5" /></clipPath><clipPath
       id="clipPath164"
       clipPathUnits="userSpaceOnUse"><path
         style="clip-rule:evenodd"
         id="path162"
         d="M -7.629e-6,113.4 H 453.48 V 7.629e-6 L 7.629e-6,3.8147e-5" /></clipPath><clipPath
       id="clipPath174"
       clipPathUnits="userSpaceOnUse"><path
         style="clip-rule:evenodd"
         id="path172"
         d="M 0,113.4 H 453.48 V 0 L 0,3.0518e-5" /></clipPath><clipPath
       id="clipPath184"
       clipPathUnits="userSpaceOnUse"><path
         style="clip-rule:evenodd"
         id="path182"
         d="M 0,113.4 H 453.48 V 0 L 0,3.0518e-5" /></clipPath><clipPath
       id="clipPath194"
       clipPathUnits="userSpaceOnUse"><path
         style="clip-rule:evenodd"
         id="path192"
         d="M -1.1444e-5,113.4 H 453.48 V 1.5259e-5 L -2.2888e-5,7.629e-6" /></clipPath><clipPath
       id="clipPath204"
       clipPathUnits="userSpaceOnUse"><path
         style="clip-rule:evenodd"
         id="path202"
         d="M -1.1444e-5,113.4 H 453.48 V 1.5259e-5 L -2.2888e-5,7.629e-6" /></clipPath><clipPath
       id="clipPath214"
       clipPathUnits="userSpaceOnUse"><path
         style="clip-rule:evenodd"
         id="path212"
         d="M -1.1444e-5,113.4 H 453.48 V 1.0681e-4 L -1.5259e-5,3.8147e-5" /></clipPath><clipPath
       id="clipPath224"
       clipPathUnits="userSpaceOnUse"><path
         style="clip-rule:evenodd"
         id="path222"
         d="M -1.1444e-5,113.4 H 453.48 V 1.0681e-4 L -1.5259e-5,3.8147e-5" /></clipPath><clipPath
       id="clipPath234"
       clipPathUnits="userSpaceOnUse"><path
         style="clip-rule:evenodd"
         id="path232"
         d="M -3.815e-6,113.4 H 453.48 V 1.297e-4 L -1.1444e-5,3.0518e-5" /></clipPath><clipPath
       id="clipPath244"
       clipPathUnits="userSpaceOnUse"><path
         style="clip-rule:evenodd"
         id="path242"
         d="M -3.815e-6,113.4 H 453.48 V 1.297e-4 L -1.1444e-5,3.0518e-5" /></clipPath><clipPath
       id="clipPath254"
       clipPathUnits="userSpaceOnUse"><path
         style="clip-rule:evenodd"
         id="path252"
         d="M -4.768e-6,113.4 H 453.48 V -3.8147e-5 L -1.907e-6,0" /></clipPath><clipPath
       id="clipPath264"
       clipPathUnits="userSpaceOnUse"><path
         style="clip-rule:evenodd"
         id="path262"
         d="M -4.768e-6,113.4 H 453.48 V -3.8147e-5 L -1.907e-6,0" /></clipPath><clipPath
       id="clipPath274"
       clipPathUnits="userSpaceOnUse"><path
         style="clip-rule:evenodd"
         id="path272"
         d="M -1.907e-6,113.4 H 453.48 V -5.3406e-5 L 1.907e-6,0" /></clipPath><clipPath
       id="clipPath284"
       clipPathUnits="userSpaceOnUse"><path
         style="clip-rule:evenodd"
         id="path282"
         d="M -1.907e-6,113.4 H 453.48 V -5.3406e-5 L 1.907e-6,0" /></clipPath><clipPath
       id="clipPath294"
       clipPathUnits="userSpaceOnUse"><path
         style="clip-rule:evenodd"
         id="path292"
         d="M -1.907e-6,113.4 H 453.48 V -6.8665e-5 L 0,-7.629e-6" /></clipPath><clipPath
       id="clipPath304"
       clipPathUnits="userSpaceOnUse"><path
         style="clip-rule:evenodd"
         id="path302"
         d="M -1.907e-6,113.4 H 453.48 V -6.8665e-5 L 0,-7.629e-6" /></clipPath><clipPath
       id="clipPath314"
       clipPathUnits="userSpaceOnUse"><path
         style="clip-rule:evenodd"
         id="path312"
         d="M -5.722e-6,113.4 H 453.48 V 1.2207e-4 L -1.1444e-5,3.8147e-5" /></clipPath><clipPath
       id="clipPath324"
       clipPathUnits="userSpaceOnUse"><path
         style="clip-rule:evenodd"
         id="path322"
         d="M -5.722e-6,113.4 H 453.48 V 1.2207e-4 L -1.1444e-5,3.8147e-5" /></clipPath><clipPath
       id="clipPath358"
       clipPathUnits="userSpaceOnUse"><path
         style="clip-rule:evenodd"
         id="path356"
         d="M 0,113.4 H 453.48 V -7.629e-6 L 7.629e-6,3.0518e-5" /></clipPath><clipPath
       id="clipPath368"
       clipPathUnits="userSpaceOnUse"><path
         style="clip-rule:evenodd"
         id="path366"
         d="M 0,113.4 H 453.48 V -7.629e-6 L 7.629e-6,3.0518e-5" /></clipPath><clipPath
       id="clipPath378"
       clipPathUnits="userSpaceOnUse"><path
         style="clip-rule:evenodd"
         id="path376"
         d="M 0,113.4 H 453.48 V 7.629e-6 L 3.815e-6,3.8147e-5" /></clipPath><clipPath
       id="clipPath388"
       clipPathUnits="userSpaceOnUse"><path
         style="clip-rule:evenodd"
         id="path386"
         d="M 0,113.4 H 453.48 V 7.629e-6 L 3.815e-6,3.8147e-5" /></clipPath><clipPath
       id="clipPath398"
       clipPathUnits="userSpaceOnUse"><path
         style="clip-rule:evenodd"
         id="path396"
         d="M -2.861e-6,113.4 H 453.48 V 3.0518e-5 L -2.1935e-5,7.629e-6" /></clipPath><clipPath
       id="clipPath408"
       clipPathUnits="userSpaceOnUse"><path
         style="clip-rule:evenodd"
         id="path406"
         d="M -2.861e-6,113.4 H 453.48 V 3.0518e-5 L -2.1935e-5,7.629e-6" /></clipPath><clipPath
       id="clipPath418"
       clipPathUnits="userSpaceOnUse"><path
         style="clip-rule:evenodd"
         id="path416"
         d="M -1.58e-6,113.4 H 453.48 V 2.2888e-5 L -1.8746e-5,7.629e-6" /></clipPath><clipPath
       id="clipPath428"
       clipPathUnits="userSpaceOnUse"><path
         style="clip-rule:evenodd"
         id="path426"
         d="M -1.58e-6,113.4 H 453.48 V 2.2888e-5 L -1.8746e-5,7.629e-6" /></clipPath><clipPath
       id="clipPath438"
       clipPathUnits="userSpaceOnUse"><path
         style="clip-rule:evenodd"
         id="path436"
         d="M -1.907e-6,113.4 H 453.48 V 2.2888e-5 L -1.7166e-5,7.629e-6" /></clipPath><clipPath
       id="clipPath448"
       clipPathUnits="userSpaceOnUse"><path
         style="clip-rule:evenodd"
         id="path446"
         d="M -1.907e-6,113.4 H 453.48 V 2.2888e-5 L -1.7166e-5,7.629e-6" /></clipPath><clipPath
       id="clipPath458"
       clipPathUnits="userSpaceOnUse"><path
         style="clip-rule:evenodd"
         id="path456"
         d="M -3.815e-6,113.4 H 453.48 V 7.629e-6 L 7.629e-6,3.8147e-5" /></clipPath><clipPath
       id="clipPath468"
       clipPathUnits="userSpaceOnUse"><path
         style="clip-rule:evenodd"
         id="path466"
         d="M -3.815e-6,113.4 H 453.48 V 7.629e-6 L 7.629e-6,3.8147e-5" /></clipPath><clipPath
       id="clipPath478"
       clipPathUnits="userSpaceOnUse"><path
         style="clip-rule:evenodd"
         id="path476"
         d="M -1.5259e-5,113.4 H 453.48 V -2.2888e-5 L -1.5259e-5,0" /></clipPath><clipPath
       id="clipPath488"
       clipPathUnits="userSpaceOnUse"><path
         style="clip-rule:evenodd"
         id="path486"
         d="M -1.5259e-5,113.4 H 453.48 V -2.2888e-5 L -1.5259e-5,0" /></clipPath><clipPath
       id="clipPath498"
       clipPathUnits="userSpaceOnUse"><path
         style="clip-rule:evenodd"
         id="path496"
         d="M -1.5259e-5,113.4 H 453.48 V -2.2888e-5 L -7.629e-6,0" /></clipPath><clipPath
       id="clipPath508"
       clipPathUnits="userSpaceOnUse"><path
         style="clip-rule:evenodd"
         id="path506"
         d="M -1.5259e-5,113.4 H 453.48 V -2.2888e-5 L -7.629e-6,0" /></clipPath><clipPath
       id="clipPath518"
       clipPathUnits="userSpaceOnUse"><path
         style="clip-rule:evenodd"
         id="path516"
         d="M -7.629e-6,113.4 H 453.48 V 1.2207e-4 L -1.5259e-5,4.5776e-5" /></clipPath><clipPath
       id="clipPath528"
       clipPathUnits="userSpaceOnUse"><path
         style="clip-rule:evenodd"
         id="path526"
         d="M -7.629e-6,113.4 H 453.48 V 1.2207e-4 L -1.5259e-5,4.5776e-5" /></clipPath><clipPath
       id="clipPath538"
       clipPathUnits="userSpaceOnUse"><path
         style="clip-rule:evenodd"
         id="path536"
         d="M 0,113.4 H 453.48 V 1.0681e-4 L -1.5259e-5,3.8147e-5" /></clipPath><clipPath
       id="clipPath548"
       clipPathUnits="userSpaceOnUse"><path
         style="clip-rule:evenodd"
         id="path546"
         d="M 0,113.4 H 453.48 V 1.0681e-4 L -1.5259e-5,3.8147e-5" /></clipPath><clipPath
       id="clipPath558"
       clipPathUnits="userSpaceOnUse"><path
         style="clip-rule:evenodd"
         id="path556"
         d="M -1.5259e-5,113.4 H 453.48 V 1.3733e-4 L -1.5259e-5,4.5776e-5" /></clipPath><clipPath
       id="clipPath568"
       clipPathUnits="userSpaceOnUse"><path
         style="clip-rule:evenodd"
         id="path566"
         d="M -1.5259e-5,113.4 H 453.48 V 1.3733e-4 L -1.5259e-5,4.5776e-5" /></clipPath><clipPath
       id="clipPath578"
       clipPathUnits="userSpaceOnUse"><path
         style="clip-rule:evenodd"
         id="path576"
         d="M -1.5259e-5,113.4 H 453.48 V -3.8147e-5 L -1.5259e-5,-7.629e-6" /></clipPath><clipPath
       id="clipPath588"
       clipPathUnits="userSpaceOnUse"><path
         style="clip-rule:evenodd"
         id="path586"
         d="M -1.5259e-5,113.4 H 453.48 V -3.8147e-5 L -1.5259e-5,-7.629e-6" /></clipPath></defs><g
     transform="matrix(1.3333333,0,0,-1.3333333,0,151.2)"
     id="g10"><g
       id="g22"><g
         clip-path="url(#clipPath28)"
         id="g24"><path
   d="m -1.60272,0 0.72122398,-3.3657121 H 0.160272 q 1.762992,0 3.2855761,-0.40068 1.60272,-0.40068 2.724624,-1.60272 1.121904,-1.282176 1.6828561,-3.7663921 L 16.187472,-48.402145 q 0.160272,-0.480816 0.240408,-1.20204 0.08014,-0.721224 0.08014,-1.041768 0,-2.083536 -1.60272,-2.644488 -1.60272,-0.560952 -4.167072,-0.560952 H 9.6964562 l 0.7212238,-3.365712 h 14.584752 l 19.392913,44.235073 7.532784,-35.420113 q 0.160272,-0.480816 0.240408,-1.20204 0.08014,-0.721224 0.08014,-1.041768 0,-2.083536 -1.60272,-2.644488 -1.60272,-0.560952 -4.167072,-0.560952 h -1.041768 l 0.721224,-3.365712 h 20.114136 l -0.721224,3.365712 h -1.041768 q -1.762992,0 -3.365712,0.40068 -1.522584,0.40068 -2.724624,1.60272 -1.121904,1.20204 -1.682856,3.766392 L 46.559017,0 h -5.20884 L 20.755224,-46.959697 12.661488,-8.8149602 q -0.08014,0.480816 -0.240408,1.20204 -0.08014,0.6410881 -0.08014,1.0417681 0,2.0034 1.60272,2.644488 1.682856,0.560952 4.167072,0.560952 h 1.041768 L 18.43128,0 Z"
   id="text32"
   style="font-style:italic;font-size:80.136px;font-family:'Noto Serif';-inkscape-font-specification:'Noto Serif Italic'"
   transform="matrix(1,0,0,-1,133.99,25.008)"
   aria-label="N" />
</g></g><g
       id="g34"><g
         clip-path="url(#clipPath40)"
         id="g36"><path
   d="M 3.2544721,0 V -3.8946961 L 12.164256,-14.191632 q 2.827656,-3.307824 4.481568,-5.708664 1.653912,-2.454192 2.347488,-4.641625 0.746928,-2.187432 0.746928,-4.641624 0,-2.027376 -0.586872,-3.521232 -0.586872,-1.547208 -1.813968,-2.40084 -1.173744,-0.853632 -3.041064,-0.853632 -2.40084,0 -3.681288,1.120392 -1.2804478,1.120392 -1.7606158,2.93436 -0.426816,1.760616 -0.426816,3.894696 -1.280448,0 -2.3474881,-0.26676 -1.013688,-0.320112 -1.653912,-1.06704 -0.586872,-0.80028 -0.586872,-2.13408 0,-2.080728 1.173744,-3.681288 1.173744,-1.60056 3.5212321,-2.507544 2.3474878,-0.960336 5.7620158,-0.960336 3.361176,0 5.762016,1.120392 2.454193,1.06704 3.734641,3.094416 1.3338,1.974024 1.3338,4.694976 0,1.493856 -0.426816,2.93436 -0.373464,1.440504 -1.120392,2.881008 -0.746928,1.440504 -1.813969,2.987713 -1.06704,1.493856 -2.454192,3.147768 -1.387152,1.653912 -3.094416,3.521232 L 7.2025202,-4.2681601 H 19.526832 q 2.40084,0 3.254473,-1.227096 0.853632,-1.227096 1.227096,-2.7743041 l 0.213408,-0.960336 h 2.240784 L 26.195833,0 Z"
   id="text44"
   style="font-size:53.352px;font-family:'Noto Serif';-inkscape-font-specification:'Noto Serif'"
   transform="matrix(1,0,0,-1,201.1,49.032)"
   aria-label="2" />
</g></g><g
       id="g46"><g
         clip-path="url(#clipPath52)"
         id="g48"><path
   d="m 28.929097,0.80136002 q -7.933465,0 -13.382713,-3.68625612 -5.449248,-3.686256 -8.2540079,-10.2574079 -2.724624,-6.651288 -2.724624,-15.546385 0,-8.654688 2.884896,-15.22584 2.9650319,-6.651288 8.6546879,-10.337544 5.769792,-3.766392 14.184073,-3.766392 5.449248,0 9.055368,1.20204 3.60612,1.121904 5.369112,3.20544 1.762992,2.0034 1.762992,4.567752 0,2.564352 -2.0034,4.086936 -2.0034,1.522584 -4.968432,1.522584 0,-2.484216 -0.881496,-4.80816 -0.881496,-2.40408 -2.965032,-3.926664 -2.0034,-1.60272 -5.529384,-1.60272 -6.010201,0 -9.696457,2.965032 -3.686256,2.884896 -5.369112,8.494416 -1.60272,5.60952 -1.60272,13.62312 0,7.132105 1.682856,12.661489 1.762992,5.449248 5.449248,8.4944159 3.686256,3.045168 9.536185,3.045168 3.926664,0 6.651288,-0.961632 2.724624,-0.961632 4.567752,-2.4842161 1.923264,-1.60272 3.285576,-3.3657118 0.641088,0.40068 1.041768,1.20204 0.480816,0.7212238 0.480816,1.9232638 0,1.5225841 -1.041768,3.1253041 -1.041768,1.522584 -3.125304,2.8848961 Q 39.907729,-0.88149602 36.622153,0 33.416713,0.80136002 28.929097,0.80136002 Z M 52.248671,0 v -3.3657121 h 1.041768 q 1.843128,0 3.285576,-0.40068 1.522584,-0.40068 2.40408,-1.60272 0.881496,-1.282176 0.881496,-3.7663921 V -48.402145 q 0,-2.40408 -0.961632,-3.525984 -0.881496,-1.20204 -2.40408,-1.522584 -1.442448,-0.40068 -3.20544,-0.40068 h -1.041768 v -3.365712 h 23.319576 v 3.365712 h -1.041768 q -1.762992,0 -3.285576,0.40068 -1.522584,0.40068 -2.40408,1.60272 -0.881496,1.20204 -0.881496,3.766392 v 16.187472 h 26.044201 v -16.187472 q 0,-2.564352 -0.881496,-3.766392 -0.881496,-1.20204 -2.404081,-1.60272 -1.442448,-0.40068 -3.285576,-0.40068 h -1.041768 v -3.365712 h 23.319573 v 3.365712 h -1.04176 q -1.763,0 -3.28558,0.40068 -1.52258,0.40068 -2.40408,1.60272 -0.8815,1.20204 -0.8815,3.766392 v 39.3467768 q 0,2.3239441 0.8815,3.5259841 0.96163,1.121904 2.40408,1.522584 1.52258,0.320544 3.28558,0.320544 h 1.04176 V 0 H 86.386607 v -3.3657121 h 1.041768 q 1.843128,0 3.285576,-0.40068 1.522585,-0.40068 2.404081,-1.60272 0.881496,-1.282176 0.881496,-3.7663921 V -27.887329 H 67.955327 v 18.7518248 q 0,2.4842161 0.881496,3.7663921 0.881496,1.20204 2.40408,1.60272 1.522584,0.40068 3.285576,0.40068 h 1.041768 V 0 Z m 60.502679,0 v -3.3657121 h 1.52258 q 1.60272,0 2.56436,-0.480816 0.96163,-0.480816 1.76299,-1.843128 0.80136,-1.362312 1.76299,-3.9266641 l 17.79019,-47.6007848 h 6.25061 l 18.11074,49.6041848 q 0.64109,1.6828561 1.36231,2.6444881 0.72122,0.881496 1.76299,1.282176 1.04177,0.320544 2.56435,0.320544 h 1.04177 V 0 h -22.0374 v -3.3657121 h 1.84313 q 2.40408,0 3.60612,-0.881496 1.20204,-0.961632 1.20204,-2.965032 0,-0.4808161 -0.0801,-0.8814961 -0.0801,-0.480816 -0.2404,-0.961632 -0.0801,-0.560952 -0.32055,-1.1219038 l -3.20544,-8.975232 h -21.07577 l -3.04517,8.41428 q -0.2404,0.641088 -0.40068,1.2821758 -0.16027,0.641088 -0.2404,1.20204 -0.0801,0.480816 -0.0801,0.9616321 0,2.0034 1.28218,2.965032 1.36231,0.961632 4.0068,0.961632 h 1.84312 V 0 Z m 17.71006,-23.159304 h 18.11073 l -4.96843,-14.023801 q -0.80136,-2.40408 -1.60272,-4.567752 -0.72122,-2.163672 -1.36231,-4.167072 -0.56095,-2.0034 -1.04177,-3.926664 -0.40068,1.923264 -0.96163,3.766392 -0.48082,1.762992 -1.12191,3.766392 -0.64108,1.923264 -1.60272,4.40748 z M 181.26764,0 v -3.3657121 h 1.84313 q 1.76299,0 3.20544,-0.320544 1.52258,-0.40068 2.40408,-1.522584 0.96163,-1.20204 0.96163,-3.5259841 V -53.210305 h -7.69306 q -3.52598,0 -4.88829,2.0034 -1.36232,1.923264 -1.68286,4.567752 l -0.40068,3.445848 h -4.16707 l 0.40068,-14.0238 h 45.11657 l 0.40068,14.0238 h -4.16707 l -0.40068,-3.445848 q -0.32055,-2.644488 -1.68286,-4.567752 -1.36231,-2.0034 -4.96843,-2.0034 h -7.7732 v 44.0748008 q 0,2.4842161 0.8815,3.7663921 0.8815,1.20204 2.40408,1.60272 1.52258,0.40068 3.28558,0.40068 h 1.84312 V 0 Z"
   id="text56"
   style="font-size:80.136px;font-family:'Noto Serif';-inkscape-font-specification:'Noto Serif';display:inline"
   transform="matrix(1,0,0,-1,230.86,25.008)"
   aria-label="CHAT" />
</g></g><path
       style="fill:#41719c;stroke-miterlimit:10"
       d="m 46.333984,37.513672 -0.867187,1.294922 27.49414,18.419922 0.869141,-1.296875 z"
       id="path58" /><path
       id="path60"
       style="fill:#deebf7;fill-opacity:1;fill-rule:evenodd;stroke:none"
       d="m 65.82,56.52 c 0,4.208 3.412,7.62 7.62,7.62 4.208,0 7.62,-3.412 7.62,-7.62 0,-4.208 -3.412,-7.62 -7.62,-7.62 -4.208,0 -7.62,3.412 -7.62,7.62 z" /><path
       style="fill:#41719c;stroke-miterlimit:10"
       d="m 73.439453,48.119141 c -4.629635,0 -8.400391,3.770755 -8.400391,8.40039 0,4.629635 3.770756,8.400391 8.400391,8.400391 4.629635,0 8.400391,-3.770756 8.400391,-8.400391 0,-4.629635 -3.770756,-8.40039 -8.400391,-8.40039 z m 0,1.560546 c 3.786365,0 6.839844,3.053479 6.839844,6.839844 0,3.786365 -3.053479,6.839844 -6.839844,6.839844 -3.786365,0 -6.839844,-3.053479 -6.839844,-6.839844 0,-3.786365 3.053479,-6.839844 6.839844,-6.839844 z"
       id="path62" /><path
       id="path64"
       style="fill:#9dc3e6;fill-opacity:1;fill-rule:evenodd;stroke:none"
       d="M 56.88,21.12 67.14,38.76 77.4,21.12 Z" /><path
       style="fill:#41719c;stroke-linejoin:round;stroke-miterlimit:10"
       d="m 56.880859,20.640625 a 0.48004799,0.48004799 0 0 0 -0.416015,0.720703 l 10.259765,17.640625 a 0.48004799,0.48004799 0 0 0 0.830078,0 L 77.814453,21.361328 a 0.48004799,0.48004799 0 0 0 -0.414062,-0.720703 z m 0.833985,0.958984 h 18.849609 l -9.423828,16.207032 z"
       id="path66" /><path
       id="path68"
       style="fill:#bdd7ee;fill-opacity:1;fill-rule:evenodd;stroke:none"
       d="M 46.56,3.36 56.88,21.12 67.2,3.36 Z" /><path
       style="fill:#41719c;stroke-linejoin:round;stroke-miterlimit:10"
       d="M 46.560547,2.8808594 A 0.48004799,0.48004799 0 0 0 46.144531,3.6015625 L 56.464844,21.361328 a 0.48004799,0.48004799 0 0 0 0.830078,0 L 67.615234,3.6015625 A 0.48004799,0.48004799 0 0 0 67.199219,2.8808594 Z m 0.832031,0.9589844 H 66.367187 L 56.878906,20.164062 Z"
       id="path70" /><path
       id="path72"
       style="fill:#deebf7;fill-opacity:1;fill-rule:evenodd;stroke:none"
       d="M 56.88,21.12 46.62,3.36 36.36,21.12 Z" /><path
       style="fill:#41719c;stroke-linejoin:round;stroke-miterlimit:10"
       d="M 46.619141,2.8808594 A 0.48004799,0.48004799 0 0 0 46.205078,3.1191406 L 35.945312,20.880859 a 0.48004799,0.48004799 0 0 0 0.414063,0.71875 h 20.521484 a 0.48004799,0.48004799 0 0 0 0.414063,-0.71875 L 47.035156,3.1191406 A 0.48004799,0.48004799 0 0 0 46.619141,2.8808594 Z m 0.002,1.4375 9.427734,16.3222656 H 37.191406 Z"
       id="path74" /><path
       id="path76"
       style="fill:#deebf7;fill-opacity:1;fill-rule:evenodd;stroke:none"
       d="M 77.4,21.12 67.14,3.36 56.88,21.12 Z" /><path
       style="fill:#41719c;stroke-linejoin:round;stroke-miterlimit:10"
       d="M 67.140625,2.8808594 A 0.48004799,0.48004799 0 0 0 66.724609,3.1191406 L 56.464844,20.880859 a 0.48004799,0.48004799 0 0 0 0.416015,0.71875 h 20.519532 a 0.48004799,0.48004799 0 0 0 0.416015,-0.71875 L 67.554687,3.1191406 A 0.48004799,0.48004799 0 0 0 67.140625,2.8808594 Z m 0,1.4375 9.427734,16.3222656 H 57.710937 Z"
       id="path78" /><path
       id="path80"
       style="fill:#deebf7;fill-opacity:1;fill-rule:evenodd;stroke:none"
       d="M 67.2,38.76 56.88,21.12 46.56,38.76 Z" /><path
       style="fill:#41719c;stroke-linejoin:round;stroke-miterlimit:10"
       d="m 56.880859,20.640625 a 0.48004799,0.48004799 0 0 0 -0.416015,0.236328 l -10.31836,17.640625 a 0.48004799,0.48004799 0 0 0 0.414063,0.722656 h 20.638672 a 0.48004799,0.48004799 0 0 0 0.416015,-0.722656 L 57.294922,20.876953 a 0.48004799,0.48004799 0 0 0 -0.414063,-0.236328 z m -0.002,1.431641 9.484375,16.207031 H 47.396484 Z"
       id="path82" /><path
       id="path84"
       style="fill:#9dc3e6;fill-opacity:1;fill-rule:evenodd;stroke:none"
       d="M 36.24,21.12 46.56,38.76 56.88,21.12 Z" /><path
       style="fill:#41719c;stroke-linejoin:round;stroke-miterlimit:10"
       d="m 36.240234,20.640625 a 0.48004799,0.48004799 0 0 0 -0.414062,0.722656 l 10.320312,17.638672 a 0.48004799,0.48004799 0 0 0 0.828125,0 L 57.294922,21.363281 a 0.48004799,0.48004799 0 0 0 -0.414063,-0.722656 z m 0.835938,0.958984 h 18.966797 l -9.482422,16.210938 z"
       id="path86" /><g
       id="g88"><g
         clip-path="url(#clipPath94)"
         id="g90"><path
           id="path96"
           style="fill:#9dc3e6;fill-opacity:1;fill-rule:evenodd;stroke:none"
           d="M 87.723,38.823 77.482,56.574 97.975,56.648 Z" /></g></g><g
       id="g98"><g
         clip-path="url(#clipPath104)"
         id="g100"><path
           style="fill:#41719c;stroke-linejoin:round;stroke-miterlimit:10"
           d="m 87.722656,38.322266 a 0.50005,0.50005 0 0 0 -0.433594,0.25 L 77.048828,56.324219 a 0.50005,0.50005 0 0 0 0.431641,0.75 l 20.492187,0.07422 a 0.50005,0.50005 0 0 0 0.435547,-0.75 L 88.15625,38.574219 a 0.50005,0.50005 0 0 0 -0.433594,-0.251953 z m 0,1.501953 9.386719,16.320312 -18.761719,-0.06641 z"
           id="path106" /></g></g><g
       id="g108"><g
         clip-path="url(#clipPath114)"
         id="g110"><path
           id="path116"
           style="fill:#bdd7ee;fill-opacity:1;fill-rule:evenodd;stroke:none"
           d="M 97.963,21.072 87.722,38.823 108.22,38.897 Z" /></g></g><g
       id="g118"><g
         clip-path="url(#clipPath124)"
         id="g120"><path
           style="fill:#41719c;stroke-linejoin:round;stroke-miterlimit:10"
           d="m 97.962891,20.572266 a 0.50005,0.50005 0 0 0 -0.433594,0.25 l -10.240235,17.75 a 0.50005,0.50005 0 0 0 0.431641,0.75 l 20.498047,0.07422 a 0.50005,0.50005 0 0 0 0.43555,-0.748047 L 98.396484,20.822266 a 0.50005,0.50005 0 0 0 -0.433593,-0.25 z m 0,1.501953 9.390629,16.318359 -18.767583,-0.06641 z"
           id="path126" /></g></g><g
       id="g128"><g
         clip-path="url(#clipPath134)"
         id="g130"><path
           id="path136"
           style="fill:#deebf7;fill-opacity:1;fill-rule:evenodd;stroke:none"
           d="M 87.722,38.823 97.963,21.072 77.47,20.997 Z" /></g></g><g
       id="g138"><g
         clip-path="url(#clipPath144)"
         id="g140"><path
           style="fill:#41719c;stroke-linejoin:round;stroke-miterlimit:10"
           d="m 77.472656,20.496094 a 0.50005,0.50005 0 0 0 -0.435547,0.75 l 10.251953,17.826172 a 0.50005,0.50005 0 0 0 0.865235,0 l 10.242187,-17.75 a 0.50005,0.50005 0 0 0 -0.43164,-0.75 z M 78.335937,21.5 l 18.761719,0.06836 -9.375,16.251953 z"
           id="path146" /></g></g><g
       id="g148"><g
         clip-path="url(#clipPath154)"
         id="g150"><path
           id="path156"
           style="fill:#deebf7;fill-opacity:1;fill-rule:evenodd;stroke:none"
           d="M 97.975,56.648 108.22,38.897 87.723,38.823 Z" /></g></g><g
       id="g158"><g
         clip-path="url(#clipPath164)"
         id="g160"><path
           style="fill:#41719c;stroke-linejoin:round;stroke-miterlimit:10"
           d="m 87.724609,38.322266 a 0.50005,0.50005 0 0 0 -0.435547,0.75 l 10.251954,17.824218 a 0.50005,0.50005 0 0 0 0.867187,0.002 L 108.65234,39.146484 a 0.50005,0.50005 0 0 0 -0.42968,-0.75 z m 0.863282,1.003906 18.767579,0.06641 -9.380861,16.253906 z"
           id="path166" /></g></g><g
       id="g168"><g
         clip-path="url(#clipPath174)"
         id="g170"><path
           id="path176"
           style="fill:#deebf7;fill-opacity:1;fill-rule:evenodd;stroke:none"
           d="M 77.482,56.574 87.722,38.823 67.229,38.748 Z" /></g></g><g
       id="g178"><g
         clip-path="url(#clipPath184)"
         id="g180"><path
           style="fill:#41719c;stroke-linejoin:round;stroke-miterlimit:10"
           d="m 67.230469,38.248047 a 0.50005,0.50005 0 0 0 -0.435547,0.75 l 10.253906,17.826172 a 0.50005,0.50005 0 0 0 0.867188,0 L 88.154297,39.072266 a 0.50005,0.50005 0 0 0 -0.429688,-0.75 z m 0.865234,1.003906 18.761719,0.06641 -9.375,16.253907 z"
           id="path186" /></g></g><g
       id="g188"><g
         clip-path="url(#clipPath194)"
         id="g190"><path
           id="path196"
           style="fill:#9dc3e6;fill-opacity:1;fill-rule:evenodd;stroke:none"
           d="m 77.453,20.968 -10.24,17.751 20.493,0.075 z" /></g></g><g
       id="g198"><g
         clip-path="url(#clipPath204)"
         id="g200"><path
           style="fill:#41719c;stroke-linejoin:round;stroke-miterlimit:10"
           d="m 77.453125,20.46875 a 0.50005,0.50005 0 0 0 -0.433594,0.25 l -10.240234,17.75 a 0.50005,0.50005 0 0 0 0.43164,0.75 l 20.494141,0.07617 a 0.50005,0.50005 0 0 0 0.433594,-0.75 L 77.886719,20.71875 a 0.50005,0.50005 0 0 0 -0.433594,-0.25 z m 0,1.501953 9.388672,16.320313 -18.763672,-0.06836 z"
           id="path206" /></g></g><g
       id="g208"><g
         clip-path="url(#clipPath214)"
         id="g210"><path
           id="path216"
           style="fill:#9dc3e6;fill-opacity:1;fill-rule:evenodd;stroke:none"
           d="M 26.108,38.889 46.601,38.848 36.39,21.081 Z" /></g></g><g
       id="g218"><g
         clip-path="url(#clipPath224)"
         id="g220"><path
           style="fill:#41719c;stroke-linejoin:round;stroke-miterlimit:10"
           d="m 36.390625,20.580078 a 0.50005,0.50005 0 0 0 -0.433594,0.25 l -10.28125,17.808594 a 0.50005,0.50005 0 0 0 0.433594,0.75 l 20.492187,-0.04102 a 0.50005,0.50005 0 0 0 0.433594,-0.748047 L 36.824219,20.832031 a 0.50005,0.50005 0 0 0 -0.433594,-0.251953 z m -0.002,1.501953 9.349609,16.267578 -18.763672,0.03711 z"
           id="path226" /></g></g><g
       id="g228"><g
         clip-path="url(#clipPath234)"
         id="g230"><path
           id="path236"
           style="fill:#bdd7ee;fill-opacity:1;fill-rule:evenodd;stroke:none"
           d="M 5.6149,38.931 26.108,38.89 15.896,21.122 Z" /></g></g><g
       id="g238"><g
         clip-path="url(#clipPath244)"
         id="g240"><path
           style="fill:#41719c;stroke-linejoin:round;stroke-miterlimit:10"
           d="m 15.896484,20.621094 a 0.50005,0.50005 0 0 0 -0.433593,0.25 L 5.1816406,38.681641 a 0.50005,0.50005 0 0 0 0.4335938,0.75 l 20.4941406,-0.04102 a 0.50005,0.50005 0 0 0 0.431641,-0.75 L 16.330078,20.873047 a 0.50005,0.50005 0 0 0 -0.433594,-0.251953 z m -0.002,1.501953 9.34961,16.269531 -18.7617191,0.03711 z"
           id="path246" /></g></g><g
       id="g248"><g
         clip-path="url(#clipPath254)"
         id="g250"><path
           id="path256"
           style="fill:#deebf7;fill-opacity:1;fill-rule:evenodd;stroke:none"
           d="M 26.108,38.89 5.6149,38.931 15.827,56.698 Z" /></g></g><g
       id="g258"><g
         clip-path="url(#clipPath264)"
         id="g260"><path
           style="fill:#41719c;stroke-linejoin:round;stroke-miterlimit:10"
           d="M 26.107422,38.390625 5.6132812,38.431641 A 0.50005,0.50005 0 0 0 5.1816406,39.179687 L 15.392578,56.947266 a 0.50005,0.50005 0 0 0 0.867188,0 l 10.28125,-17.806641 a 0.50005,0.50005 0 0 0 -0.433594,-0.75 z M 25.242187,39.392578 15.828125,55.697266 6.4785156,39.429687 Z"
           id="path266" /></g></g><g
       id="g268"><g
         clip-path="url(#clipPath274)"
         id="g270"><path
           id="path276"
           style="fill:#deebf7;fill-opacity:1;fill-rule:evenodd;stroke:none"
           d="M 36.39,21.081 15.896,21.122 26.108,38.889 Z" /></g></g><g
       id="g278"><g
         clip-path="url(#clipPath284)"
         id="g280"><path
           style="fill:#41719c;stroke-linejoin:round;stroke-miterlimit:10"
           d="m 36.388672,20.580078 -20.494141,0.04102 a 0.50005,0.50005 0 0 0 -0.43164,0.75 l 10.210937,17.767578 a 0.50005,0.50005 0 0 0 0.867188,0 l 10.28125,-17.808594 a 0.50005,0.50005 0 0 0 -0.433594,-0.75 z m -0.865235,1.001953 -9.414062,16.306641 -9.349609,-16.269531 z"
           id="path286" /></g></g><g
       id="g288"><g
         clip-path="url(#clipPath294)"
         id="g290"><path
           id="path296"
           style="fill:#deebf7;fill-opacity:1;fill-rule:evenodd;stroke:none"
           d="M 46.601,38.848 26.108,38.89 36.32,56.657 Z" /></g></g><g
       id="g298"><g
         clip-path="url(#clipPath304)"
         id="g300"><path
           style="fill:#41719c;stroke-linejoin:round;stroke-miterlimit:10"
           d="m 46.599609,38.347656 -20.492187,0.04297 a 0.50005,0.50005 0 0 0 -0.433594,0.748047 L 35.886719,56.90625 a 0.50005,0.50005 0 0 0 0.867187,0 L 47.033203,39.097656 a 0.50005,0.50005 0 0 0 -0.433594,-0.75 z m -0.865234,1.001953 -9.414063,16.304688 -9.349609,-16.265625 z"
           id="path306" /></g></g><g
       id="g308"><g
         clip-path="url(#clipPath314)"
         id="g310"><path
           id="path316"
           style="fill:#9dc3e6;fill-opacity:1;fill-rule:evenodd;stroke:none"
           d="M 15.81,56.728 36.303,56.687 26.091,38.919 Z" /></g></g><g
       id="g318"><g
         clip-path="url(#clipPath324)"
         id="g320"><path
           style="fill:#41719c;stroke-linejoin:round;stroke-miterlimit:10"
           d="m 26.091797,38.419922 a 0.50005,0.50005 0 0 0 -0.433594,0.25 l -10.28125,17.808594 a 0.50005,0.50005 0 0 0 0.433594,0.75 l 20.49414,-0.04102 a 0.50005,0.50005 0 0 0 0.431641,-0.75 L 26.525391,38.669922 a 0.50005,0.50005 0 0 0 -0.433594,-0.25 z m -0.002,1.5 9.349609,16.269531 -18.763672,0.03711 z"
           id="path326" /></g></g><path
       id="path328"
       style="fill:#9dc3e6;fill-opacity:1;fill-rule:evenodd;stroke:none"
       d="M 56.88,92.04 46.62,74.4 36.36,92.04 Z" /><path
       style="fill:#41719c;stroke-linejoin:round;stroke-miterlimit:10"
       d="m 46.619141,73.919922 a 0.48004799,0.48004799 0 0 0 -0.414063,0.238281 L 35.945312,91.798828 a 0.48004799,0.48004799 0 0 0 0.414063,0.720703 h 20.521484 a 0.48004799,0.48004799 0 0 0 0.414063,-0.720703 L 47.035156,74.158203 a 0.48004799,0.48004799 0 0 0 -0.416015,-0.238281 z m 0.002,1.433594 9.423828,16.207031 h -18.84961 z"
       id="path330" /><path
       id="path332"
       style="fill:#bdd7ee;fill-opacity:1;fill-rule:evenodd;stroke:none"
       d="M 67.2,109.8 56.88,92.04 46.56,109.8 Z" /><path
       style="fill:#41719c;stroke-linejoin:round;stroke-miterlimit:10"
       d="m 56.880859,91.560547 a 0.48004799,0.48004799 0 0 0 -0.416015,0.238281 L 46.144531,109.55859 a 0.48004799,0.48004799 0 0 0 0.416016,0.72071 h 20.638672 a 0.48004799,0.48004799 0 0 0 0.416015,-0.72071 L 57.294922,91.798828 a 0.48004799,0.48004799 0 0 0 -0.414063,-0.238281 z m -0.002,1.435547 9.488281,16.324216 H 47.392578 Z"
       id="path334" /><path
       id="path336"
       style="fill:#deebf7;fill-opacity:1;fill-rule:evenodd;stroke:none"
       d="M 56.88,92.04 67.14,109.8 77.4,92.04 Z" /><path
       style="fill:#41719c;stroke-linejoin:round;stroke-miterlimit:10"
       d="m 56.880859,91.560547 a 0.48004799,0.48004799 0 0 0 -0.416015,0.71875 l 10.259765,17.761723 a 0.48004799,0.48004799 0 0 0 0.830078,0 L 77.816406,92.279297 a 0.48004799,0.48004799 0 0 0 -0.416015,-0.71875 z m 0.830078,0.958984 H 76.568359 L 67.140625,108.8418 Z"
       id="path338" /><path
       id="path340"
       style="fill:#deebf7;fill-opacity:1;fill-rule:evenodd;stroke:none"
       d="M 36.36,92.04 46.62,109.8 56.88,92.04 Z" /><path
       style="fill:#41719c;stroke-linejoin:round;stroke-miterlimit:10"
       d="m 36.359375,91.560547 a 0.48004799,0.48004799 0 0 0 -0.414063,0.71875 l 10.259766,17.761723 a 0.48004799,0.48004799 0 0 0 0.830078,0 L 57.294922,92.279297 a 0.48004799,0.48004799 0 0 0 -0.414063,-0.71875 z m 0.832031,0.958984 H 56.048828 L 46.621094,108.8418 Z"
       id="path342" /><path
       id="path344"
       style="fill:#deebf7;fill-opacity:1;fill-rule:evenodd;stroke:none"
       d="M 46.56,74.4 56.88,92.04 67.2,74.4 Z" /><path
       style="fill:#41719c;stroke-linejoin:round;stroke-miterlimit:10"
       d="m 46.560547,73.919922 a 0.48004799,0.48004799 0 0 0 -0.414063,0.722656 l 10.31836,17.640625 a 0.48004799,0.48004799 0 0 0 0.830078,0 L 67.615234,74.642578 a 0.48004799,0.48004799 0 0 0 -0.416015,-0.722656 z m 0.835937,0.960937 h 18.966797 l -9.484375,16.207032 z"
       id="path346" /><path
       id="path348"
       style="fill:#9dc3e6;fill-opacity:1;fill-rule:evenodd;stroke:none"
       d="M 77.52,92.04 67.2,74.4 56.88,92.04 Z" /><path
       style="fill:#41719c;stroke-linejoin:round;stroke-miterlimit:10"
       d="m 67.199219,73.919922 a 0.48004799,0.48004799 0 0 0 -0.414063,0.238281 L 56.464844,91.796875 a 0.48004799,0.48004799 0 0 0 0.416015,0.722656 h 20.638672 a 0.48004799,0.48004799 0 0 0 0.414063,-0.722656 L 67.615234,74.158203 a 0.48004799,0.48004799 0 0 0 -0.416015,-0.238281 z m 0,1.43164 9.484375,16.208985 H 57.716797 Z"
       id="path350" /><g
       id="g352"><g
         clip-path="url(#clipPath358)"
         id="g354"><path
           id="path360"
           style="fill:#9dc3e6;fill-opacity:1;fill-rule:evenodd;stroke:none"
           d="M 26.019,74.339 36.26,56.588 15.767,56.513 Z" /></g></g><g
       id="g362"><g
         clip-path="url(#clipPath368)"
         id="g364"><path
           style="fill:#41719c;stroke-linejoin:round;stroke-miterlimit:10"
           d="m 15.769531,56.013672 a 0.50005,0.50005 0 0 0 -0.435547,0.748047 l 10.251953,17.826172 a 0.50005,0.50005 0 0 0 0.865235,0 l 10.242187,-17.75 a 0.50005,0.50005 0 0 0 -0.43164,-0.75 z m 0.865235,1.003906 18.759765,0.06641 -9.375,16.253907 z"
           id="path370" /></g></g><g
       id="g372"><g
         clip-path="url(#clipPath378)"
         id="g374"><path
           id="path380"
           style="fill:#bdd7ee;fill-opacity:1;fill-rule:evenodd;stroke:none"
           d="M 15.779,92.09 26.019,74.339 5.5261,74.265 Z" /></g></g><g
       id="g382"><g
         clip-path="url(#clipPath388)"
         id="g384"><path
           style="fill:#41719c;stroke-linejoin:round;stroke-miterlimit:10"
           d="M 5.5273437,73.765625 A 0.50005,0.50005 0 0 0 5.0917969,74.513672 L 15.345703,92.339844 a 0.50005,0.50005 0 0 0 0.867188,0 L 26.451172,74.587891 a 0.50005,0.50005 0 0 0 -0.429688,-0.748047 z m 0.8652344,1.003906 18.7617189,0.06641 -9.375,16.251954 z"
           id="path390" /></g></g><g
       id="g392"><g
         clip-path="url(#clipPath398)"
         id="g394"><path
           id="path400"
           style="fill:#deebf7;fill-opacity:1;fill-rule:evenodd;stroke:none"
           d="M 26.019,74.339 15.779,92.09 36.272,92.165 Z" /></g></g><g
       id="g402"><g
         clip-path="url(#clipPath408)"
         id="g404"><path
           style="fill:#41719c;stroke-linejoin:round;stroke-miterlimit:10"
           d="m 26.019531,73.839844 a 0.50005,0.50005 0 0 0 -0.433594,0.25 l -10.240234,17.75 a 0.50005,0.50005 0 0 0 0.431641,0.75 l 20.492187,0.07422 a 0.50005,0.50005 0 0 0 0.435547,-0.748046 L 26.453125,74.089844 a 0.50005,0.50005 0 0 0 -0.433594,-0.25 z m -0.002,1.5 9.386719,16.320312 -18.759766,-0.06641 z"
           id="path410" /></g></g><g
       id="g412"><g
         clip-path="url(#clipPath418)"
         id="g414"><path
           id="path420"
           style="fill:#deebf7;fill-opacity:1;fill-rule:evenodd;stroke:none"
           d="M 15.767,56.513 5.5261,74.265 26.019,74.339 Z" /></g></g><g
       id="g422"><g
         clip-path="url(#clipPath428)"
         id="g424"><path
           style="fill:#41719c;stroke-linejoin:round;stroke-miterlimit:10"
           d="m 15.767578,56.013672 a 0.50005,0.50005 0 0 0 -0.433594,0.25 L 5.09375,74.015625 a 0.50005,0.50005 0 0 0 0.4296875,0.75 l 20.4941405,0.07422 a 0.50005,0.50005 0 0 0 0.435547,-0.75 L 16.201172,56.263672 a 0.50005,0.50005 0 0 0 -0.433594,-0.25 z m -0.002,1.5 9.388672,16.322265 -18.763672,-0.06641 z"
           id="path430" /></g></g><g
       id="g432"><g
         clip-path="url(#clipPath438)"
         id="g434"><path
           id="path440"
           style="fill:#deebf7;fill-opacity:1;fill-rule:evenodd;stroke:none"
           d="M 36.26,56.588 26.019,74.339 46.512,74.413 Z" /></g></g><g
       id="g442"><g
         clip-path="url(#clipPath448)"
         id="g444"><path
           style="fill:#41719c;stroke-linejoin:round;stroke-miterlimit:10"
           d="m 36.259766,56.087891 a 0.50005,0.50005 0 0 0 -0.433594,0.25 L 25.585937,74.089844 a 0.50005,0.50005 0 0 0 0.431641,0.75 l 20.492188,0.07227 a 0.50005,0.50005 0 0 0 0.435546,-0.748047 L 36.693359,56.337891 a 0.50005,0.50005 0 0 0 -0.433593,-0.25 z m 0,1.501953 9.384765,16.318359 -18.763672,-0.06445 z"
           id="path450" /></g></g><g
       id="g452"><g
         clip-path="url(#clipPath458)"
         id="g454"><path
           id="path460"
           style="fill:#9dc3e6;fill-opacity:1;fill-rule:evenodd;stroke:none"
           d="M 36.289,92.194 46.529,74.443 26.036,74.368 Z" /></g></g><g
       id="g462"><g
         clip-path="url(#clipPath468)"
         id="g464"><path
           style="fill:#41719c;stroke-linejoin:round;stroke-miterlimit:10"
           d="m 26.037109,73.867187 a 0.50005,0.50005 0 0 0 -0.433593,0.75 l 10.251953,17.826172 a 0.50005,0.50005 0 0 0 0.867187,0 l 10.240235,-17.75 a 0.50005,0.50005 0 0 0 -0.431641,-0.75 z m 0.863282,1.003907 18.763671,0.06836 -9.375,16.251953 z"
           id="path470" /></g></g><g
       id="g472"><g
         clip-path="url(#clipPath478)"
         id="g474"><path
           id="path480"
           style="fill:#9dc3e6;fill-opacity:1;fill-rule:evenodd;stroke:none"
           d="M 87.634,74.272 67.14,74.313 77.352,92.081 Z" /></g></g><g
       id="g482"><g
         clip-path="url(#clipPath488)"
         id="g484"><path
           style="fill:#41719c;stroke-linejoin:round;stroke-miterlimit:10"
           d="m 87.632812,73.771484 -20.49414,0.04102 a 0.50005,0.50005 0 0 0 -0.431641,0.75 l 10.210938,17.767578 a 0.50005,0.50005 0 0 0 0.867187,0 l 10.28125,-17.808594 a 0.50005,0.50005 0 0 0 -0.433594,-0.75 z m -0.865234,1.001953 -9.414062,16.306641 -9.34961,-16.269531 z"
           id="path490" /></g></g><g
       id="g492"><g
         clip-path="url(#clipPath498)"
         id="g494"><path
           id="path500"
           style="fill:#bdd7ee;fill-opacity:1;fill-rule:evenodd;stroke:none"
           d="M 108.13,74.231 87.634,74.272 97.845,92.04 Z" /></g></g><g
       id="g502"><g
         clip-path="url(#clipPath508)"
         id="g504"><path
           style="fill:#41719c;stroke-linejoin:round;stroke-miterlimit:10"
           d="m 108.12891,73.730469 -20.496098,0.04102 a 0.50005,0.50005 0 0 0 -0.43164,0.75 l 10.210937,17.767578 a 0.50005,0.50005 0 0 0 0.865235,0.002 L 108.5625,74.480469 a 0.50005,0.50005 0 0 0 -0.43359,-0.75 z m -0.86524,1.001953 -9.417967,16.304687 -9.347656,-16.267578 z"
           id="path510" /></g></g><g
       id="g512"><g
         clip-path="url(#clipPath518)"
         id="g514"><path
           id="path520"
           style="fill:#deebf7;fill-opacity:1;fill-rule:evenodd;stroke:none"
           d="M 87.634,74.272 108.13,74.231 97.915,56.463 Z" /></g></g><g
       id="g522"><g
         clip-path="url(#clipPath528)"
         id="g524"><path
           style="fill:#41719c;stroke-linejoin:round;stroke-miterlimit:10"
           d="m 97.916016,55.962891 a 0.50005,0.50005 0 0 0 -0.433594,0.25 l -10.28125,17.808593 a 0.50005,0.50005 0 0 0 0.433594,0.75 l 20.496094,-0.04102 a 0.50005,0.50005 0 0 0 0.43164,-0.748047 L 98.347656,56.212891 a 0.50005,0.50005 0 0 0 -0.43164,-0.25 z m -0.002,1.5 9.353518,16.269531 L 88.5,73.769531 Z"
           id="path530" /></g></g><g
       id="g532"><g
         clip-path="url(#clipPath538)"
         id="g534"><path
           id="path540"
           style="fill:#deebf7;fill-opacity:1;fill-rule:evenodd;stroke:none"
           d="M 77.352,92.081 97.845,92.04 87.634,74.272 Z" /></g></g><g
       id="g542"><g
         clip-path="url(#clipPath548)"
         id="g544"><path
           style="fill:#41719c;stroke-linejoin:round;stroke-miterlimit:10"
           d="m 87.634766,73.771484 a 0.50005,0.50005 0 0 0 -0.433594,0.25 l -10.28125,17.808594 a 0.50005,0.50005 0 0 0 0.433594,0.75 l 20.492187,-0.04102 a 0.50005,0.50005 0 0 0 0.433594,-0.748046 L 88.068359,74.023437 a 0.50005,0.50005 0 0 0 -0.433593,-0.251953 z m -0.002,1.501953 9.34961,16.267579 -18.763672,0.03711 z"
           id="path550" /></g></g><g
       id="g552"><g
         clip-path="url(#clipPath558)"
         id="g554"><path
           id="path560"
           style="fill:#deebf7;fill-opacity:1;fill-rule:evenodd;stroke:none"
           d="M 67.14,74.313 87.634,74.272 77.422,56.504 Z" /></g></g><g
       id="g562"><g
         clip-path="url(#clipPath568)"
         id="g564"><path
           style="fill:#41719c;stroke-linejoin:round;stroke-miterlimit:10"
           d="m 77.421875,56.003906 a 0.50005,0.50005 0 0 0 -0.433594,0.25 L 66.707031,74.0625 a 0.50005,0.50005 0 0 0 0.433594,0.75 l 20.494141,-0.04102 a 0.50005,0.50005 0 0 0 0.433593,-0.748047 L 77.855469,56.253906 a 0.50005,0.50005 0 0 0 -0.433594,-0.25 z m -0.002,1.501953 9.351562,16.267578 -18.765625,0.03711 z"
           id="path570" /></g></g><g
       id="g572"><g
         clip-path="url(#clipPath578)"
         id="g574"><path
           id="path580"
           style="fill:#9dc3e6;fill-opacity:1;fill-rule:evenodd;stroke:none"
           d="M 97.932,56.434 77.439,56.475 87.65,74.243 Z" /></g></g><g
       id="g582"><g
         clip-path="url(#clipPath588)"
         id="g584"><path
           style="fill:#41719c;stroke-linejoin:round;stroke-miterlimit:10"
           d="M 97.931641,55.933594 77.4375,55.974609 a 0.50005,0.50005 0 0 0 -0.431641,0.75 l 10.210938,17.767578 a 0.50005,0.50005 0 0 0 0.867187,0 l 10.28125,-17.808593 a 0.50005,0.50005 0 0 0 -0.433593,-0.75 z m -0.867188,1.001953 -9.414062,16.304687 -9.347657,-16.267578 z"
           id="path590" /></g></g><path
       style="fill:#41719c;stroke-miterlimit:8"
       d="m 46.679687,37.578125 -1.560546,0.01367 0.308593,34.355469 1.560547,-0.01367 z"
       id="path592" /><path
       id="path594"
       style="fill:#deebf7;fill-opacity:1;fill-rule:evenodd;stroke:none"
       d="m 38.34,71.28 c 0,4.208 3.412,7.62 7.62,7.62 4.208,0 7.62,-3.412 7.62,-7.62 0,-4.208 -3.412,-7.62 -7.62,-7.62 -4.208,0 -7.62,3.412 -7.62,7.62 z" /><path
       style="fill:#41719c;stroke-miterlimit:8"
       d="m 45.960937,62.880859 c -4.629634,0 -8.40039,3.768803 -8.40039,8.398438 0,4.629635 3.770756,8.40039 8.40039,8.40039 4.629635,0 8.398438,-3.770755 8.398438,-8.40039 0,-4.629635 -3.768803,-8.398438 -8.398438,-8.398438 z m 0,1.558594 c 3.786366,0 6.839844,3.053479 6.839844,6.839844 0,3.786365 -3.053478,6.839844 -6.839844,6.839844 -3.786365,0 -6.841796,-3.053479 -6.841796,-6.839844 0,-3.786365 3.055431,-6.839844 6.841796,-6.839844 z"
       id="path596" /><path
       id="path598"
       style="fill:#bdd7ee;fill-opacity:1;fill-rule:evenodd;stroke:none"
       d="m 38.1,37.62 c 0,4.242 3.412,7.68 7.62,7.68 4.208,0 7.62,-3.438 7.62,-7.68 0,-4.242 -3.412,-7.68 -7.62,-7.68 -4.208,0 -7.62,3.438 -7.62,7.68 z" /><path
       style="fill:#41719c;stroke-miterlimit:8"
       d="m 45.720703,29.160156 c -4.632848,0 -8.400391,3.798729 -8.400391,8.458985 0,4.660255 3.767543,8.460937 8.400391,8.460937 4.632848,0 8.398438,-3.800682 8.398438,-8.460937 0,-4.660256 -3.76559,-8.458985 -8.398438,-8.458985 z m 0,1.560547 c 3.783152,0 6.839844,3.074693 6.839844,6.898438 0,3.823744 -3.056692,6.90039 -6.839844,6.90039 -3.783152,0 -6.839844,-3.076646 -6.839844,-6.90039 0,-3.823745 3.056692,-6.898438 6.839844,-6.898438 z"
       id="path600" /></g></svg>
