<?xml version="1.0" encoding="UTF-8" standalone="no"?>
<svg
   xmlns:dc="http://purl.org/dc/elements/1.1/"
   xmlns:cc="http://creativecommons.org/ns#"
   xmlns:rdf="http://www.w3.org/1999/02/22-rdf-syntax-ns#"
   xmlns:svg="http://www.w3.org/2000/svg"
   xmlns="http://www.w3.org/2000/svg"
   viewBox="0 0 604.64001 151.2"
   height="20"
   width="80"
   xml:space="preserve"
   id="svg2"
   version="1.1"><metadata
     id="metadata8"><rdf:RDF><cc:Work
         rdf:about=""><dc:format>image/svg+xml</dc:format><dc:type
           rdf:resource="http://purl.org/dc/dcmitype/StillImage" /></cc:Work></rdf:RDF></metadata><defs
     id="defs6"><clipPath
       id="clipPath18"
       clipPathUnits="userSpaceOnUse"><path
         style="clip-rule:evenodd"
         id="path16"
         d="M 0,2.2888e-5 H 453.48 V 113.40002 H 0 Z" /></clipPath><clipPath
       id="clipPath28"
       clipPathUnits="userSpaceOnUse"><path
         style="clip-rule:evenodd"
         id="path26"
         d="M 6.757e-6,0 H 453.48001 V 113.4 H 6.757e-6 Z" /></clipPath><clipPath
       id="clipPath40"
       clipPathUnits="userSpaceOnUse"><path
         style="clip-rule:evenodd"
         id="path38"
         d="M 6.757e-6,0 H 453.48001 V 113.4 H 6.757e-6 Z" /></clipPath><clipPath
       id="clipPath52"
       clipPathUnits="userSpaceOnUse"><path
         style="clip-rule:evenodd"
         id="path50"
         d="M 6.757e-6,0 H 453.48001 V 113.4 H 6.757e-6 Z" /></clipPath><clipPath
       id="clipPath94"
       clipPathUnits="userSpaceOnUse"><path
         style="clip-rule:evenodd"
         id="path92"
         d="M -1.5259e-5,113.4 H 453.48 V 2.2888e-5 L -3.0518e-5,1.5259e-5" /></clipPath><clipPath
       id="clipPath104"
       clipPathUnits="userSpaceOnUse"><path
         style="clip-rule:evenodd"
         id="path102"
         d="M -1.5259e-5,113.4 H 453.48 V 2.2888e-5 L -3.0518e-5,1.5259e-5" /></clipPath><clipPath
       id="clipPath114"
       clipPathUnits="userSpaceOnUse"><path
         style="clip-rule:evenodd"
         id="path112"
         d="M -1.5259e-5,113.4 H 453.48 V 3.8147e-5 L -3.0518e-5,7.629e-6" /></clipPath><clipPath
       id="clipPath124"
       clipPathUnits="userSpaceOnUse"><path
         style="clip-rule:evenodd"
         id="path122"
         d="M -1.5259e-5,113.4 H 453.48 V 3.8147e-5 L -3.0518e-5,7.629e-6" /></clipPath><clipPath
       id="clipPath134"
       clipPathUnits="userSpaceOnUse"><path
         style="clip-rule:evenodd"
         id="path132"
         d="M 0,113.4 H 453.48 V 7.629e-6 L 0,3.0518e-5" /></clipPath><clipPath
       id="clipPath144"
       clipPathUnits="userSpaceOnUse"><path
         style="clip-rule:evenodd"
         id="path142"
         d="M 0,113.4 H 453.48 V 7.629e-6 L 0,3.0518e-5" /></clipPath><clipPath
       id="clipPath154"
       clipPathUnits="userSpaceOnUse"><path
         style="clip-rule:evenodd"
         id="path152"
         d="M -7.629e-6,113.4 H 453.48 V 7.629e-6 L 7.629e-6,3.8147e-5" /></clipPath><clipPath
       id="clipPath164"
       clipPathUnits="userSpaceOnUse"><path
         style="clip-rule:evenodd"
         id="path162"
         d="M -7.629e-6,113.4 H 453.48 V 7.629e-6 L 7.629e-6,3.8147e-5" /></clipPath><clipPath
       id="clipPath174"
       clipPathUnits="userSpaceOnUse"><path
         style="clip-rule:evenodd"
         id="path172"
         d="M 0,113.4 H 453.48 V 0 L 0,3.0518e-5" /></clipPath><clipPath
       id="clipPath184"
       clipPathUnits="userSpaceOnUse"><path
         style="clip-rule:evenodd"
         id="path182"
         d="M 0,113.4 H 453.48 V 0 L 0,3.0518e-5" /></clipPath><clipPath
       id="clipPath194"
       clipPathUnits="userSpaceOnUse"><path
         style="clip-rule:evenodd"
         id="path192"
         d="M -1.1444e-5,113.4 H 453.48 V 1.5259e-5 L -2.2888e-5,7.629e-6" /></clipPath><clipPath
       id="clipPath204"
       clipPathUnits="userSpaceOnUse"><path
         style="clip-rule:evenodd"
         id="path202"
         d="M -1.1444e-5,113.4 H 453.48 V 1.5259e-5 L -2.2888e-5,7.629e-6" /></clipPath><clipPath
       id="clipPath214"
       clipPathUnits="userSpaceOnUse"><path
         style="clip-rule:evenodd"
         id="path212"
         d="M -1.1444e-5,113.4 H 453.48 V 1.0681e-4 L -1.5259e-5,3.8147e-5" /></clipPath><clipPath
       id="clipPath224"
       clipPathUnits="userSpaceOnUse"><path
         style="clip-rule:evenodd"
         id="path222"
         d="M -1.1444e-5,113.4 H 453.48 V 1.0681e-4 L -1.5259e-5,3.8147e-5" /></clipPath><clipPath
       id="clipPath234"
       clipPathUnits="userSpaceOnUse"><path
         style="clip-rule:evenodd"
         id="path232"
         d="M -3.815e-6,113.4 H 453.48 V 1.297e-4 L -1.1444e-5,3.0518e-5" /></clipPath><clipPath
       id="clipPath244"
       clipPathUnits="userSpaceOnUse"><path
         style="clip-rule:evenodd"
         id="path242"
         d="M -3.815e-6,113.4 H 453.48 V 1.297e-4 L -1.1444e-5,3.0518e-5" /></clipPath><clipPath
       id="clipPath254"
       clipPathUnits="userSpaceOnUse"><path
         style="clip-rule:evenodd"
         id="path252"
         d="M -4.768e-6,113.4 H 453.48 V -3.8147e-5 L -1.907e-6,0" /></clipPath><clipPath
       id="clipPath264"
       clipPathUnits="userSpaceOnUse"><path
         style="clip-rule:evenodd"
         id="path262"
         d="M -4.768e-6,113.4 H 453.48 V -3.8147e-5 L -1.907e-6,0" /></clipPath><clipPath
       id="clipPath274"
       clipPathUnits="userSpaceOnUse"><path
         style="clip-rule:evenodd"
         id="path272"
         d="M -1.907e-6,113.4 H 453.48 V -5.3406e-5 L 1.907e-6,0" /></clipPath><clipPath
       id="clipPath284"
       clipPathUnits="userSpaceOnUse"><path
         style="clip-rule:evenodd"
         id="path282"
         d="M -1.907e-6,113.4 H 453.48 V -5.3406e-5 L 1.907e-6,0" /></clipPath><clipPath
       id="clipPath294"
       clipPathUnits="userSpaceOnUse"><path
         style="clip-rule:evenodd"
         id="path292"
         d="M -1.907e-6,113.4 H 453.48 V -6.8665e-5 L 0,-7.629e-6" /></clipPath><clipPath
       id="clipPath304"
       clipPathUnits="userSpaceOnUse"><path
         style="clip-rule:evenodd"
         id="path302"
         d="M -1.907e-6,113.4 H 453.48 V -6.8665e-5 L 0,-7.629e-6" /></clipPath><clipPath
       id="clipPath314"
       clipPathUnits="userSpaceOnUse"><path
         style="clip-rule:evenodd"
         id="path312"
         d="M -5.722e-6,113.4 H 453.48 V 1.2207e-4 L -1.1444e-5,3.8147e-5" /></clipPath><clipPath
       id="clipPath324"
       clipPathUnits="userSpaceOnUse"><path
         style="clip-rule:evenodd"
         id="path322"
         d="M -5.722e-6,113.4 H 453.48 V 1.2207e-4 L -1.1444e-5,3.8147e-5" /></clipPath><clipPath
       id="clipPath358"
       clipPathUnits="userSpaceOnUse"><path
         style="clip-rule:evenodd"
         id="path356"
         d="M 0,113.4 H 453.48 V -7.629e-6 L 7.629e-6,3.0518e-5" /></clipPath><clipPath
       id="clipPath368"
       clipPathUnits="userSpaceOnUse"><path
         style="clip-rule:evenodd"
         id="path366"
         d="M 0,113.4 H 453.48 V -7.629e-6 L 7.629e-6,3.0518e-5" /></clipPath><clipPath
       id="clipPath378"
       clipPathUnits="userSpaceOnUse"><path
         style="clip-rule:evenodd"
         id="path376"
         d="M 0,113.4 H 453.48 V 7.629e-6 L 3.815e-6,3.8147e-5" /></clipPath><clipPath
       id="clipPath388"
       clipPathUnits="userSpaceOnUse"><path
         style="clip-rule:evenodd"
         id="path386"
         d="M 0,113.4 H 453.48 V 7.629e-6 L 3.815e-6,3.8147e-5" /></clipPath><clipPath
       id="clipPath398"
       clipPathUnits="userSpaceOnUse"><path
         style="clip-rule:evenodd"
         id="path396"
         d="M -2.861e-6,113.4 H 453.48 V 3.0518e-5 L -2.1935e-5,7.629e-6" /></clipPath><clipPath
       id="clipPath408"
       clipPathUnits="userSpaceOnUse"><path
         style="clip-rule:evenodd"
         id="path406"
         d="M -2.861e-6,113.4 H 453.48 V 3.0518e-5 L -2.1935e-5,7.629e-6" /></clipPath><clipPath
       id="clipPath418"
       clipPathUnits="userSpaceOnUse"><path
         style="clip-rule:evenodd"
         id="path416"
         d="M -1.58e-6,113.4 H 453.48 V 2.2888e-5 L -1.8746e-5,7.629e-6" /></clipPath><clipPath
       id="clipPath428"
       clipPathUnits="userSpaceOnUse"><path
         style="clip-rule:evenodd"
         id="path426"
         d="M -1.58e-6,113.4 H 453.48 V 2.2888e-5 L -1.8746e-5,7.629e-6" /></clipPath><clipPath
       id="clipPath438"
       clipPathUnits="userSpaceOnUse"><path
         style="clip-rule:evenodd"
         id="path436"
         d="M -1.907e-6,113.4 H 453.48 V 2.2888e-5 L -1.7166e-5,7.629e-6" /></clipPath><clipPath
       id="clipPath448"
       clipPathUnits="userSpaceOnUse"><path
         style="clip-rule:evenodd"
         id="path446"
         d="M -1.907e-6,113.4 H 453.48 V 2.2888e-5 L -1.7166e-5,7.629e-6" /></clipPath><clipPath
       id="clipPath458"
       clipPathUnits="userSpaceOnUse"><path
         style="clip-rule:evenodd"
         id="path456"
         d="M -3.815e-6,113.4 H 453.48 V 7.629e-6 L 7.629e-6,3.8147e-5" /></clipPath><clipPath
       id="clipPath468"
       clipPathUnits="userSpaceOnUse"><path
         style="clip-rule:evenodd"
         id="path466"
         d="M -3.815e-6,113.4 H 453.48 V 7.629e-6 L 7.629e-6,3.8147e-5" /></clipPath><clipPath
       id="clipPath478"
       clipPathUnits="userSpaceOnUse"><path
         style="clip-rule:evenodd"
         id="path476"
         d="M -1.5259e-5,113.4 H 453.48 V -2.2888e-5 L -1.5259e-5,0" /></clipPath><clipPath
       id="clipPath488"
       clipPathUnits="userSpaceOnUse"><path
         style="clip-rule:evenodd"
         id="path486"
         d="M -1.5259e-5,113.4 H 453.48 V -2.2888e-5 L -1.5259e-5,0" /></clipPath><clipPath
       id="clipPath498"
       clipPathUnits="userSpaceOnUse"><path
         style="clip-rule:evenodd"
         id="path496"
         d="M -1.5259e-5,113.4 H 453.48 V -2.2888e-5 L -7.629e-6,0" /></clipPath><clipPath
       id="clipPath508"
       clipPathUnits="userSpaceOnUse"><path
         style="clip-rule:evenodd"
         id="path506"
         d="M -1.5259e-5,113.4 H 453.48 V -2.2888e-5 L -7.629e-6,0" /></clipPath><clipPath
       id="clipPath518"
       clipPathUnits="userSpaceOnUse"><path
         style="clip-rule:evenodd"
         id="path516"
         d="M -7.629e-6,113.4 H 453.48 V 1.2207e-4 L -1.5259e-5,4.5776e-5" /></clipPath><clipPath
       id="clipPath528"
       clipPathUnits="userSpaceOnUse"><path
         style="clip-rule:evenodd"
         id="path526"
         d="M -7.629e-6,113.4 H 453.48 V 1.2207e-4 L -1.5259e-5,4.5776e-5" /></clipPath><clipPath
       id="clipPath538"
       clipPathUnits="userSpaceOnUse"><path
         style="clip-rule:evenodd"
         id="path536"
         d="M 0,113.4 H 453.48 V 1.0681e-4 L -1.5259e-5,3.8147e-5" /></clipPath><clipPath
       id="clipPath548"
       clipPathUnits="userSpaceOnUse"><path
         style="clip-rule:evenodd"
         id="path546"
         d="M 0,113.4 H 453.48 V 1.0681e-4 L -1.5259e-5,3.8147e-5" /></clipPath><clipPath
       id="clipPath558"
       clipPathUnits="userSpaceOnUse"><path
         style="clip-rule:evenodd"
         id="path556"
         d="M -1.5259e-5,113.4 H 453.48 V 1.3733e-4 L -1.5259e-5,4.5776e-5" /></clipPath><clipPath
       id="clipPath568"
       clipPathUnits="userSpaceOnUse"><path
         style="clip-rule:evenodd"
         id="path566"
         d="M -1.5259e-5,113.4 H 453.48 V 1.3733e-4 L -1.5259e-5,4.5776e-5" /></clipPath><clipPath
       id="clipPath578"
       clipPathUnits="userSpaceOnUse"><path
         style="clip-rule:evenodd"
         id="path576"
         d="M -1.5259e-5,113.4 H 453.48 V -3.8147e-5 L -1.5259e-5,-7.629e-6" /></clipPath><clipPath
       id="clipPath588"
       clipPathUnits="userSpaceOnUse"><path
         style="clip-rule:evenodd"
         id="path586"
         d="M -1.5259e-5,113.4 H 453.48 V -3.8147e-5 L -1.5259e-5,-7.629e-6" /></clipPath></defs><g
     transform="matrix(1.3333333,0,0,-1.3333333,0,151.2)"
     id="g10"><g
       id="g12"><g
         clip-path="url(#clipPath18)"
         id="g14"><path
           id="path20"
           style="fill:#ffffff00;fill-opacity:1;fill-rule:evenodd;stroke:none"
           d="M 0,7.629e-6 H 453.48 V 113.40001 H 0 Z" /></g></g><g
       id="g22"><g
         clip-path="url(#clipPath28)"
         id="g24"><text
           id="text32"
           style="font-style:italic;font-variant:normal;font-weight:normal;font-size:80.13600159px;font-family:'Noto Serif';-inkscape-font-specification:'Noto Serif Italic';writing-mode:lr-tb;fill:#000000;fill-opacity:1;fill-rule:nonzero;stroke:none"
           transform="matrix(1,0,0,-1,133.99,25.008)"><tspan
             id="tspan30"
             y="0"
             x="0">N</tspan></text>
</g></g><g
       id="g34"><g
         clip-path="url(#clipPath40)"
         id="g36"><text
           id="text44"
           style="font-variant:normal;font-weight:normal;font-size:53.35200119px;font-family:'Noto Serif';-inkscape-font-specification:'Noto Serif';writing-mode:lr-tb;fill:#000000;fill-opacity:1;fill-rule:nonzero;stroke:none"
           transform="matrix(1,0,0,-1,201.1,49.032)"><tspan
             id="tspan42"
             y="0"
             x="0">2</tspan></text>
</g></g><g
       id="g46"><g
         clip-path="url(#clipPath52)"
         id="g48"><text
           id="text56"
           style="font-variant:normal;font-weight:normal;font-size:80.13600159px;font-family:'Noto Serif';-inkscape-font-specification:'Noto Serif';writing-mode:lr-tb;fill:#000000;fill-opacity:1;fill-rule:nonzero;stroke:none"
           transform="matrix(1,0,0,-1,230.86,25.008)"><tspan
             id="tspan54"
             y="0"
             x="0 49.203503 112.75135 169.24724">CHAT</tspan></text>
</g></g><path
       id="path58"
       style="fill:none;stroke:#41719c;stroke-width:1.55999994;stroke-linecap:butt;stroke-linejoin:miter;stroke-miterlimit:10;stroke-dasharray:none;stroke-opacity:1"
       d="M 45.9,38.161 73.395,56.58" /><path
       id="path60"
       style="fill:#deebf7;fill-opacity:1;fill-rule:evenodd;stroke:none"
       d="m 65.82,56.52 c 0,4.208 3.412,7.62 7.62,7.62 4.208,0 7.62,-3.412 7.62,-7.62 0,-4.208 -3.412,-7.62 -7.62,-7.62 -4.208,0 -7.62,3.412 -7.62,7.62 z" /><path
       id="path62"
       style="fill:none;stroke:#41719c;stroke-width:1.55999994;stroke-linecap:butt;stroke-linejoin:miter;stroke-miterlimit:10;stroke-dasharray:none;stroke-opacity:1"
       d="m 65.82,56.52 c 0,4.208 3.412,7.62 7.62,7.62 4.208,0 7.62,-3.412 7.62,-7.62 0,-4.208 -3.412,-7.62 -7.62,-7.62 -4.208,0 -7.62,3.412 -7.62,7.62 z" /><path
       id="path64"
       style="fill:#9dc3e6;fill-opacity:1;fill-rule:evenodd;stroke:none"
       d="M 56.88,21.12 67.14,38.76 77.4,21.12 Z" /><path
       id="path66"
       style="fill:none;stroke:#41719c;stroke-width:0.95999998;stroke-linecap:butt;stroke-linejoin:round;stroke-miterlimit:10;stroke-dasharray:none;stroke-opacity:1"
       d="M 56.88,21.12 67.14,38.76 77.4,21.12 Z" /><path
       id="path68"
       style="fill:#bdd7ee;fill-opacity:1;fill-rule:evenodd;stroke:none"
       d="M 46.56,3.36 56.88,21.12 67.2,3.36 Z" /><path
       id="path70"
       style="fill:none;stroke:#41719c;stroke-width:0.95999998;stroke-linecap:butt;stroke-linejoin:round;stroke-miterlimit:10;stroke-dasharray:none;stroke-opacity:1"
       d="M 46.56,3.36 56.88,21.12 67.2,3.36 Z" /><path
       id="path72"
       style="fill:#deebf7;fill-opacity:1;fill-rule:evenodd;stroke:none"
       d="M 56.88,21.12 46.62,3.36 36.36,21.12 Z" /><path
       id="path74"
       style="fill:none;stroke:#41719c;stroke-width:0.95999998;stroke-linecap:butt;stroke-linejoin:round;stroke-miterlimit:10;stroke-dasharray:none;stroke-opacity:1"
       d="M 56.88,21.12 46.62,3.36 36.36,21.12 Z" /><path
       id="path76"
       style="fill:#deebf7;fill-opacity:1;fill-rule:evenodd;stroke:none"
       d="M 77.4,21.12 67.14,3.36 56.88,21.12 Z" /><path
       id="path78"
       style="fill:none;stroke:#41719c;stroke-width:0.95999998;stroke-linecap:butt;stroke-linejoin:round;stroke-miterlimit:10;stroke-dasharray:none;stroke-opacity:1"
       d="M 77.4,21.12 67.14,3.36 56.88,21.12 Z" /><path
       id="path80"
       style="fill:#deebf7;fill-opacity:1;fill-rule:evenodd;stroke:none"
       d="M 67.2,38.76 56.88,21.12 46.56,38.76 Z" /><path
       id="path82"
       style="fill:none;stroke:#41719c;stroke-width:0.95999998;stroke-linecap:butt;stroke-linejoin:round;stroke-miterlimit:10;stroke-dasharray:none;stroke-opacity:1"
       d="M 67.2,38.76 56.88,21.12 46.56,38.76 Z" /><path
       id="path84"
       style="fill:#9dc3e6;fill-opacity:1;fill-rule:evenodd;stroke:none"
       d="M 36.24,21.12 46.56,38.76 56.88,21.12 Z" /><path
       id="path86"
       style="fill:none;stroke:#41719c;stroke-width:0.95999998;stroke-linecap:butt;stroke-linejoin:round;stroke-miterlimit:10;stroke-dasharray:none;stroke-opacity:1"
       d="M 36.24,21.12 46.56,38.76 56.88,21.12 Z" /><g
       id="g88"><g
         clip-path="url(#clipPath94)"
         id="g90"><path
           id="path96"
           style="fill:#9dc3e6;fill-opacity:1;fill-rule:evenodd;stroke:none"
           d="M 87.723,38.823 77.482,56.574 97.975,56.648 Z" /></g></g><g
       id="g98"><g
         clip-path="url(#clipPath104)"
         id="g100"><path
           id="path106"
           style="fill:none;stroke:#41719c;stroke-width:1;stroke-linecap:butt;stroke-linejoin:round;stroke-miterlimit:10;stroke-dasharray:none;stroke-opacity:1"
           d="M 87.723,38.823 77.482,56.574 97.975,56.648 Z" /></g></g><g
       id="g108"><g
         clip-path="url(#clipPath114)"
         id="g110"><path
           id="path116"
           style="fill:#bdd7ee;fill-opacity:1;fill-rule:evenodd;stroke:none"
           d="M 97.963,21.072 87.722,38.823 108.22,38.897 Z" /></g></g><g
       id="g118"><g
         clip-path="url(#clipPath124)"
         id="g120"><path
           id="path126"
           style="fill:none;stroke:#41719c;stroke-width:1;stroke-linecap:butt;stroke-linejoin:round;stroke-miterlimit:10;stroke-dasharray:none;stroke-opacity:1"
           d="M 97.963,21.072 87.722,38.823 108.22,38.897 Z" /></g></g><g
       id="g128"><g
         clip-path="url(#clipPath134)"
         id="g130"><path
           id="path136"
           style="fill:#deebf7;fill-opacity:1;fill-rule:evenodd;stroke:none"
           d="M 87.722,38.823 97.963,21.072 77.47,20.997 Z" /></g></g><g
       id="g138"><g
         clip-path="url(#clipPath144)"
         id="g140"><path
           id="path146"
           style="fill:none;stroke:#41719c;stroke-width:1;stroke-linecap:butt;stroke-linejoin:round;stroke-miterlimit:10;stroke-dasharray:none;stroke-opacity:1"
           d="M 87.722,38.823 97.963,21.072 77.47,20.997 Z" /></g></g><g
       id="g148"><g
         clip-path="url(#clipPath154)"
         id="g150"><path
           id="path156"
           style="fill:#deebf7;fill-opacity:1;fill-rule:evenodd;stroke:none"
           d="M 97.975,56.648 108.22,38.897 87.723,38.823 Z" /></g></g><g
       id="g158"><g
         clip-path="url(#clipPath164)"
         id="g160"><path
           id="path166"
           style="fill:none;stroke:#41719c;stroke-width:1;stroke-linecap:butt;stroke-linejoin:round;stroke-miterlimit:10;stroke-dasharray:none;stroke-opacity:1"
           d="M 97.975,56.648 108.22,38.897 87.723,38.823 Z" /></g></g><g
       id="g168"><g
         clip-path="url(#clipPath174)"
         id="g170"><path
           id="path176"
           style="fill:#deebf7;fill-opacity:1;fill-rule:evenodd;stroke:none"
           d="M 77.482,56.574 87.722,38.823 67.229,38.748 Z" /></g></g><g
       id="g178"><g
         clip-path="url(#clipPath184)"
         id="g180"><path
           id="path186"
           style="fill:none;stroke:#41719c;stroke-width:1;stroke-linecap:butt;stroke-linejoin:round;stroke-miterlimit:10;stroke-dasharray:none;stroke-opacity:1"
           d="M 77.482,56.574 87.722,38.823 67.229,38.748 Z" /></g></g><g
       id="g188"><g
         clip-path="url(#clipPath194)"
         id="g190"><path
           id="path196"
           style="fill:#9dc3e6;fill-opacity:1;fill-rule:evenodd;stroke:none"
           d="m 77.453,20.968 -10.24,17.751 20.493,0.075 z" /></g></g><g
       id="g198"><g
         clip-path="url(#clipPath204)"
         id="g200"><path
           id="path206"
           style="fill:none;stroke:#41719c;stroke-width:1;stroke-linecap:butt;stroke-linejoin:round;stroke-miterlimit:10;stroke-dasharray:none;stroke-opacity:1"
           d="m 77.453,20.968 -10.24,17.751 20.493,0.075 z" /></g></g><g
       id="g208"><g
         clip-path="url(#clipPath214)"
         id="g210"><path
           id="path216"
           style="fill:#9dc3e6;fill-opacity:1;fill-rule:evenodd;stroke:none"
           d="M 26.108,38.889 46.601,38.848 36.39,21.081 Z" /></g></g><g
       id="g218"><g
         clip-path="url(#clipPath224)"
         id="g220"><path
           id="path226"
           style="fill:none;stroke:#41719c;stroke-width:1;stroke-linecap:butt;stroke-linejoin:round;stroke-miterlimit:10;stroke-dasharray:none;stroke-opacity:1"
           d="M 26.108,38.889 46.601,38.848 36.39,21.081 Z" /></g></g><g
       id="g228"><g
         clip-path="url(#clipPath234)"
         id="g230"><path
           id="path236"
           style="fill:#bdd7ee;fill-opacity:1;fill-rule:evenodd;stroke:none"
           d="M 5.6149,38.931 26.108,38.89 15.896,21.122 Z" /></g></g><g
       id="g238"><g
         clip-path="url(#clipPath244)"
         id="g240"><path
           id="path246"
           style="fill:none;stroke:#41719c;stroke-width:1;stroke-linecap:butt;stroke-linejoin:round;stroke-miterlimit:10;stroke-dasharray:none;stroke-opacity:1"
           d="M 5.6149,38.931 26.108,38.89 15.896,21.122 Z" /></g></g><g
       id="g248"><g
         clip-path="url(#clipPath254)"
         id="g250"><path
           id="path256"
           style="fill:#deebf7;fill-opacity:1;fill-rule:evenodd;stroke:none"
           d="M 26.108,38.89 5.6149,38.931 15.827,56.698 Z" /></g></g><g
       id="g258"><g
         clip-path="url(#clipPath264)"
         id="g260"><path
           id="path266"
           style="fill:none;stroke:#41719c;stroke-width:1;stroke-linecap:butt;stroke-linejoin:round;stroke-miterlimit:10;stroke-dasharray:none;stroke-opacity:1"
           d="M 26.108,38.89 5.6149,38.931 15.827,56.698 Z" /></g></g><g
       id="g268"><g
         clip-path="url(#clipPath274)"
         id="g270"><path
           id="path276"
           style="fill:#deebf7;fill-opacity:1;fill-rule:evenodd;stroke:none"
           d="M 36.39,21.081 15.896,21.122 26.108,38.889 Z" /></g></g><g
       id="g278"><g
         clip-path="url(#clipPath284)"
         id="g280"><path
           id="path286"
           style="fill:none;stroke:#41719c;stroke-width:1;stroke-linecap:butt;stroke-linejoin:round;stroke-miterlimit:10;stroke-dasharray:none;stroke-opacity:1"
           d="M 36.39,21.081 15.896,21.122 26.108,38.889 Z" /></g></g><g
       id="g288"><g
         clip-path="url(#clipPath294)"
         id="g290"><path
           id="path296"
           style="fill:#deebf7;fill-opacity:1;fill-rule:evenodd;stroke:none"
           d="M 46.601,38.848 26.108,38.89 36.32,56.657 Z" /></g></g><g
       id="g298"><g
         clip-path="url(#clipPath304)"
         id="g300"><path
           id="path306"
           style="fill:none;stroke:#41719c;stroke-width:1;stroke-linecap:butt;stroke-linejoin:round;stroke-miterlimit:10;stroke-dasharray:none;stroke-opacity:1"
           d="M 46.601,38.848 26.108,38.89 36.32,56.657 Z" /></g></g><g
       id="g308"><g
         clip-path="url(#clipPath314)"
         id="g310"><path
           id="path316"
           style="fill:#9dc3e6;fill-opacity:1;fill-rule:evenodd;stroke:none"
           d="M 15.81,56.728 36.303,56.687 26.091,38.919 Z" /></g></g><g
       id="g318"><g
         clip-path="url(#clipPath324)"
         id="g320"><path
           id="path326"
           style="fill:none;stroke:#41719c;stroke-width:1;stroke-linecap:butt;stroke-linejoin:round;stroke-miterlimit:10;stroke-dasharray:none;stroke-opacity:1"
           d="M 15.81,56.728 36.303,56.687 26.091,38.919 Z" /></g></g><path
       id="path328"
       style="fill:#9dc3e6;fill-opacity:1;fill-rule:evenodd;stroke:none"
       d="M 56.88,92.04 46.62,74.4 36.36,92.04 Z" /><path
       id="path330"
       style="fill:none;stroke:#41719c;stroke-width:0.95999998;stroke-linecap:butt;stroke-linejoin:round;stroke-miterlimit:10;stroke-dasharray:none;stroke-opacity:1"
       d="M 56.88,92.04 46.62,74.4 36.36,92.04 Z" /><path
       id="path332"
       style="fill:#bdd7ee;fill-opacity:1;fill-rule:evenodd;stroke:none"
       d="M 67.2,109.8 56.88,92.04 46.56,109.8 Z" /><path
       id="path334"
       style="fill:none;stroke:#41719c;stroke-width:0.95999998;stroke-linecap:butt;stroke-linejoin:round;stroke-miterlimit:10;stroke-dasharray:none;stroke-opacity:1"
       d="M 67.2,109.8 56.88,92.04 46.56,109.8 Z" /><path
       id="path336"
       style="fill:#deebf7;fill-opacity:1;fill-rule:evenodd;stroke:none"
       d="M 56.88,92.04 67.14,109.8 77.4,92.04 Z" /><path
       id="path338"
       style="fill:none;stroke:#41719c;stroke-width:0.95999998;stroke-linecap:butt;stroke-linejoin:round;stroke-miterlimit:10;stroke-dasharray:none;stroke-opacity:1"
       d="M 56.88,92.04 67.14,109.8 77.4,92.04 Z" /><path
       id="path340"
       style="fill:#deebf7;fill-opacity:1;fill-rule:evenodd;stroke:none"
       d="M 36.36,92.04 46.62,109.8 56.88,92.04 Z" /><path
       id="path342"
       style="fill:none;stroke:#41719c;stroke-width:0.95999998;stroke-linecap:butt;stroke-linejoin:round;stroke-miterlimit:10;stroke-dasharray:none;stroke-opacity:1"
       d="M 36.36,92.04 46.62,109.8 56.88,92.04 Z" /><path
       id="path344"
       style="fill:#deebf7;fill-opacity:1;fill-rule:evenodd;stroke:none"
       d="M 46.56,74.4 56.88,92.04 67.2,74.4 Z" /><path
       id="path346"
       style="fill:none;stroke:#41719c;stroke-width:0.95999998;stroke-linecap:butt;stroke-linejoin:round;stroke-miterlimit:10;stroke-dasharray:none;stroke-opacity:1"
       d="M 46.56,74.4 56.88,92.04 67.2,74.4 Z" /><path
       id="path348"
       style="fill:#9dc3e6;fill-opacity:1;fill-rule:evenodd;stroke:none"
       d="M 77.52,92.04 67.2,74.4 56.88,92.04 Z" /><path
       id="path350"
       style="fill:none;stroke:#41719c;stroke-width:0.95999998;stroke-linecap:butt;stroke-linejoin:round;stroke-miterlimit:10;stroke-dasharray:none;stroke-opacity:1"
       d="M 77.52,92.04 67.2,74.4 56.88,92.04 Z" /><g
       id="g352"><g
         clip-path="url(#clipPath358)"
         id="g354"><path
           id="path360"
           style="fill:#9dc3e6;fill-opacity:1;fill-rule:evenodd;stroke:none"
           d="M 26.019,74.339 36.26,56.588 15.767,56.513 Z" /></g></g><g
       id="g362"><g
         clip-path="url(#clipPath368)"
         id="g364"><path
           id="path370"
           style="fill:none;stroke:#41719c;stroke-width:1;stroke-linecap:butt;stroke-linejoin:round;stroke-miterlimit:10;stroke-dasharray:none;stroke-opacity:1"
           d="M 26.019,74.339 36.26,56.588 15.767,56.513 Z" /></g></g><g
       id="g372"><g
         clip-path="url(#clipPath378)"
         id="g374"><path
           id="path380"
           style="fill:#bdd7ee;fill-opacity:1;fill-rule:evenodd;stroke:none"
           d="M 15.779,92.09 26.019,74.339 5.5261,74.265 Z" /></g></g><g
       id="g382"><g
         clip-path="url(#clipPath388)"
         id="g384"><path
           id="path390"
           style="fill:none;stroke:#41719c;stroke-width:1;stroke-linecap:butt;stroke-linejoin:round;stroke-miterlimit:10;stroke-dasharray:none;stroke-opacity:1"
           d="M 15.779,92.09 26.019,74.339 5.5261,74.265 Z" /></g></g><g
       id="g392"><g
         clip-path="url(#clipPath398)"
         id="g394"><path
           id="path400"
           style="fill:#deebf7;fill-opacity:1;fill-rule:evenodd;stroke:none"
           d="M 26.019,74.339 15.779,92.09 36.272,92.165 Z" /></g></g><g
       id="g402"><g
         clip-path="url(#clipPath408)"
         id="g404"><path
           id="path410"
           style="fill:none;stroke:#41719c;stroke-width:1;stroke-linecap:butt;stroke-linejoin:round;stroke-miterlimit:10;stroke-dasharray:none;stroke-opacity:1"
           d="M 26.019,74.339 15.779,92.09 36.272,92.165 Z" /></g></g><g
       id="g412"><g
         clip-path="url(#clipPath418)"
         id="g414"><path
           id="path420"
           style="fill:#deebf7;fill-opacity:1;fill-rule:evenodd;stroke:none"
           d="M 15.767,56.513 5.5261,74.265 26.019,74.339 Z" /></g></g><g
       id="g422"><g
         clip-path="url(#clipPath428)"
         id="g424"><path
           id="path430"
           style="fill:none;stroke:#41719c;stroke-width:1;stroke-linecap:butt;stroke-linejoin:round;stroke-miterlimit:10;stroke-dasharray:none;stroke-opacity:1"
           d="M 15.767,56.513 5.5261,74.265 26.019,74.339 Z" /></g></g><g
       id="g432"><g
         clip-path="url(#clipPath438)"
         id="g434"><path
           id="path440"
           style="fill:#deebf7;fill-opacity:1;fill-rule:evenodd;stroke:none"
           d="M 36.26,56.588 26.019,74.339 46.512,74.413 Z" /></g></g><g
       id="g442"><g
         clip-path="url(#clipPath448)"
         id="g444"><path
           id="path450"
           style="fill:none;stroke:#41719c;stroke-width:1;stroke-linecap:butt;stroke-linejoin:round;stroke-miterlimit:10;stroke-dasharray:none;stroke-opacity:1"
           d="M 36.26,56.588 26.019,74.339 46.512,74.413 Z" /></g></g><g
       id="g452"><g
         clip-path="url(#clipPath458)"
         id="g454"><path
           id="path460"
           style="fill:#9dc3e6;fill-opacity:1;fill-rule:evenodd;stroke:none"
           d="M 36.289,92.194 46.529,74.443 26.036,74.368 Z" /></g></g><g
       id="g462"><g
         clip-path="url(#clipPath468)"
         id="g464"><path
           id="path470"
           style="fill:none;stroke:#41719c;stroke-width:1;stroke-linecap:butt;stroke-linejoin:round;stroke-miterlimit:10;stroke-dasharray:none;stroke-opacity:1"
           d="M 36.289,92.194 46.529,74.443 26.036,74.368 Z" /></g></g><g
       id="g472"><g
         clip-path="url(#clipPath478)"
         id="g474"><path
           id="path480"
           style="fill:#9dc3e6;fill-opacity:1;fill-rule:evenodd;stroke:none"
           d="M 87.634,74.272 67.14,74.313 77.352,92.081 Z" /></g></g><g
       id="g482"><g
         clip-path="url(#clipPath488)"
         id="g484"><path
           id="path490"
           style="fill:none;stroke:#41719c;stroke-width:1;stroke-linecap:butt;stroke-linejoin:round;stroke-miterlimit:10;stroke-dasharray:none;stroke-opacity:1"
           d="M 87.634,74.272 67.14,74.313 77.352,92.081 Z" /></g></g><g
       id="g492"><g
         clip-path="url(#clipPath498)"
         id="g494"><path
           id="path500"
           style="fill:#bdd7ee;fill-opacity:1;fill-rule:evenodd;stroke:none"
           d="M 108.13,74.231 87.634,74.272 97.845,92.04 Z" /></g></g><g
       id="g502"><g
         clip-path="url(#clipPath508)"
         id="g504"><path
           id="path510"
           style="fill:none;stroke:#41719c;stroke-width:1;stroke-linecap:butt;stroke-linejoin:round;stroke-miterlimit:10;stroke-dasharray:none;stroke-opacity:1"
           d="M 108.13,74.231 87.634,74.272 97.845,92.04 Z" /></g></g><g
       id="g512"><g
         clip-path="url(#clipPath518)"
         id="g514"><path
           id="path520"
           style="fill:#deebf7;fill-opacity:1;fill-rule:evenodd;stroke:none"
           d="M 87.634,74.272 108.13,74.231 97.915,56.463 Z" /></g></g><g
       id="g522"><g
         clip-path="url(#clipPath528)"
         id="g524"><path
           id="path530"
           style="fill:none;stroke:#41719c;stroke-width:1;stroke-linecap:butt;stroke-linejoin:round;stroke-miterlimit:10;stroke-dasharray:none;stroke-opacity:1"
           d="M 87.634,74.272 108.13,74.231 97.915,56.463 Z" /></g></g><g
       id="g532"><g
         clip-path="url(#clipPath538)"
         id="g534"><path
           id="path540"
           style="fill:#deebf7;fill-opacity:1;fill-rule:evenodd;stroke:none"
           d="M 77.352,92.081 97.845,92.04 87.634,74.272 Z" /></g></g><g
       id="g542"><g
         clip-path="url(#clipPath548)"
         id="g544"><path
           id="path550"
           style="fill:none;stroke:#41719c;stroke-width:1;stroke-linecap:butt;stroke-linejoin:round;stroke-miterlimit:10;stroke-dasharray:none;stroke-opacity:1"
           d="M 77.352,92.081 97.845,92.04 87.634,74.272 Z" /></g></g><g
       id="g552"><g
         clip-path="url(#clipPath558)"
         id="g554"><path
           id="path560"
           style="fill:#deebf7;fill-opacity:1;fill-rule:evenodd;stroke:none"
           d="M 67.14,74.313 87.634,74.272 77.422,56.504 Z" /></g></g><g
       id="g562"><g
         clip-path="url(#clipPath568)"
         id="g564"><path
           id="path570"
           style="fill:none;stroke:#41719c;stroke-width:1;stroke-linecap:butt;stroke-linejoin:round;stroke-miterlimit:10;stroke-dasharray:none;stroke-opacity:1"
           d="M 67.14,74.313 87.634,74.272 77.422,56.504 Z" /></g></g><g
       id="g572"><g
         clip-path="url(#clipPath578)"
         id="g574"><path
           id="path580"
           style="fill:#9dc3e6;fill-opacity:1;fill-rule:evenodd;stroke:none"
           d="M 97.932,56.434 77.439,56.475 87.65,74.243 Z" /></g></g><g
       id="g582"><g
         clip-path="url(#clipPath588)"
         id="g584"><path
           id="path590"
           style="fill:none;stroke:#41719c;stroke-width:1;stroke-linecap:butt;stroke-linejoin:round;stroke-miterlimit:10;stroke-dasharray:none;stroke-opacity:1"
           d="M 97.932,56.434 77.439,56.475 87.65,74.243 Z" /></g></g><path
       id="path592"
       style="fill:none;stroke:#41719c;stroke-width:1.55999994;stroke-linecap:butt;stroke-linejoin:miter;stroke-miterlimit:8;stroke-dasharray:none;stroke-opacity:1"
       d="M 45.9,37.585 46.208,71.94" /><path
       id="path594"
       style="fill:#deebf7;fill-opacity:1;fill-rule:evenodd;stroke:none"
       d="m 38.34,71.28 c 0,4.208 3.412,7.62 7.62,7.62 4.208,0 7.62,-3.412 7.62,-7.62 0,-4.208 -3.412,-7.62 -7.62,-7.62 -4.208,0 -7.62,3.412 -7.62,7.62 z" /><path
       id="path596"
       style="fill:none;stroke:#41719c;stroke-width:1.55999994;stroke-linecap:butt;stroke-linejoin:miter;stroke-miterlimit:8;stroke-dasharray:none;stroke-opacity:1"
       d="m 38.34,71.28 c 0,4.208 3.412,7.62 7.62,7.62 4.208,0 7.62,-3.412 7.62,-7.62 0,-4.208 -3.412,-7.62 -7.62,-7.62 -4.208,0 -7.62,3.412 -7.62,7.62 z" /><path
       id="path598"
       style="fill:#bdd7ee;fill-opacity:1;fill-rule:evenodd;stroke:none"
       d="m 38.1,37.62 c 0,4.242 3.412,7.68 7.62,7.68 4.208,0 7.62,-3.438 7.62,-7.68 0,-4.242 -3.412,-7.68 -7.62,-7.68 -4.208,0 -7.62,3.438 -7.62,7.68 z" /><path
       id="path600"
       style="fill:none;stroke:#41719c;stroke-width:1.55999994;stroke-linecap:butt;stroke-linejoin:miter;stroke-miterlimit:8;stroke-dasharray:none;stroke-opacity:1"
       d="m 38.1,37.62 c 0,4.242 3.412,7.68 7.62,7.68 4.208,0 7.62,-3.438 7.62,-7.68 0,-4.242 -3.412,-7.68 -7.62,-7.68 -4.208,0 -7.62,3.438 -7.62,7.68 z" /></g></svg>