<?xml version="1.0" encoding="UTF-8" standalone="no"?>
<svg
   xmlns:dc="http://purl.org/dc/elements/1.1/"
   xmlns:cc="http://creativecommons.org/ns#"
   xmlns:rdf="http://www.w3.org/1999/02/22-rdf-syntax-ns#"
   xmlns:svg="http://www.w3.org/2000/svg"
   xmlns="http://www.w3.org/2000/svg"
   viewBox="0 0 151.2 151.2"
   height="16"
   width="16"
   xml:space="preserve"
   id="svg2"
   version="1.1"><metadata
     id="metadata8"><rdf:RDF><cc:Work
         rdf:about=""><dc:format>image/svg+xml</dc:format><dc:type
           rdf:resource="http://purl.org/dc/dcmitype/StillImage" /></cc:Work></rdf:RDF></metadata><defs
     id="defs6"><clipPath
       id="clipPath18"
       clipPathUnits="userSpaceOnUse"><path
         style="clip-rule:evenodd"
         id="path16"
         d="M 0,2.2888e-5 H 113.4 V 113.40002 H 0 Z" /></clipPath><clipPath
       id="clipPath58"
       clipPathUnits="userSpaceOnUse"><path
         style="clip-rule:evenodd"
         id="path56"
         d="M -1.5259e-5,113.4 H 113.4 V 1.5259e-5 L -2.2888e-5,2.2888e-5" /></clipPath><clipPath
       id="clipPath68"
       clipPathUnits="userSpaceOnUse"><path
         style="clip-rule:evenodd"
         id="path66"
         d="M -1.5259e-5,113.4 H 113.4 V 1.5259e-5 L -2.2888e-5,2.2888e-5" /></clipPath><clipPath
       id="clipPath78"
       clipPathUnits="userSpaceOnUse"><path
         style="clip-rule:evenodd"
         id="path76"
         d="M -1.5259e-5,113.4 H 113.4 V 2.2888e-5 H -2.2888e-5" /></clipPath><clipPath
       id="clipPath88"
       clipPathUnits="userSpaceOnUse"><path
         style="clip-rule:evenodd"
         id="path86"
         d="M -1.5259e-5,113.4 H 113.4 V 2.2888e-5 H -2.2888e-5" /></clipPath><clipPath
       id="clipPath98"
       clipPathUnits="userSpaceOnUse"><path
         style="clip-rule:evenodd"
         id="path96"
         d="M -7.629e-6,113.4 H 113.4 V 7.629e-6 L -7.629e-6,2.2888e-5" /></clipPath><clipPath
       id="clipPath108"
       clipPathUnits="userSpaceOnUse"><path
         style="clip-rule:evenodd"
         id="path106"
         d="M -7.629e-6,113.4 H 113.4 V 7.629e-6 L -7.629e-6,2.2888e-5" /></clipPath><clipPath
       id="clipPath118"
       clipPathUnits="userSpaceOnUse"><path
         style="clip-rule:evenodd"
         id="path116"
         d="M 0,113.4 H 113.4 V 7.629e-6 L -7.629e-6,1.5259e-5" /></clipPath><clipPath
       id="clipPath128"
       clipPathUnits="userSpaceOnUse"><path
         style="clip-rule:evenodd"
         id="path126"
         d="M 0,113.4 H 113.4 V 7.629e-6 L -7.629e-6,1.5259e-5" /></clipPath><clipPath
       id="clipPath138"
       clipPathUnits="userSpaceOnUse"><path
         style="clip-rule:evenodd"
         id="path136"
         d="M -7.629e-6,113.4 H 113.4 V 7.629e-6 L 0,2.2888e-5" /></clipPath><clipPath
       id="clipPath148"
       clipPathUnits="userSpaceOnUse"><path
         style="clip-rule:evenodd"
         id="path146"
         d="M -7.629e-6,113.4 H 113.4 V 7.629e-6 L 0,2.2888e-5" /></clipPath><clipPath
       id="clipPath158"
       clipPathUnits="userSpaceOnUse"><path
         style="clip-rule:evenodd"
         id="path156"
         d="M -7.629e-6,113.4 H 113.4 V 1.5259e-5 L -1.9073e-5,2.2888e-5" /></clipPath><clipPath
       id="clipPath168"
       clipPathUnits="userSpaceOnUse"><path
         style="clip-rule:evenodd"
         id="path166"
         d="M -7.629e-6,113.4 H 113.4 V 1.5259e-5 L -1.9073e-5,2.2888e-5" /></clipPath><clipPath
       id="clipPath178"
       clipPathUnits="userSpaceOnUse"><path
         style="clip-rule:evenodd"
         id="path176"
         d="M -7.629e-6,113.4 H 113.4 V 3.0518e-5 H -1.1444e-5" /></clipPath><clipPath
       id="clipPath188"
       clipPathUnits="userSpaceOnUse"><path
         style="clip-rule:evenodd"
         id="path186"
         d="M -7.629e-6,113.4 H 113.4 V 3.0518e-5 H -1.1444e-5" /></clipPath><clipPath
       id="clipPath198"
       clipPathUnits="userSpaceOnUse"><path
         style="clip-rule:evenodd"
         id="path196"
         d="M -3.815e-6,113.4 H 113.4 V 3.8147e-5 L -5.722e-6,2.2888e-5" /></clipPath><clipPath
       id="clipPath208"
       clipPathUnits="userSpaceOnUse"><path
         style="clip-rule:evenodd"
         id="path206"
         d="M -3.815e-6,113.4 H 113.4 V 3.8147e-5 L -5.722e-6,2.2888e-5" /></clipPath><clipPath
       id="clipPath218"
       clipPathUnits="userSpaceOnUse"><path
         style="clip-rule:evenodd"
         id="path216"
         d="M -7.629e-6,113.4 H 113.4 V 7.629e-6 H -9.537e-6" /></clipPath><clipPath
       id="clipPath228"
       clipPathUnits="userSpaceOnUse"><path
         style="clip-rule:evenodd"
         id="path226"
         d="M -7.629e-6,113.4 H 113.4 V 7.629e-6 H -9.537e-6" /></clipPath><clipPath
       id="clipPath238"
       clipPathUnits="userSpaceOnUse"><path
         style="clip-rule:evenodd"
         id="path236"
         d="M -1.907e-6,113.4 H 113.4 V -7.629e-6 L 0,0" /></clipPath><clipPath
       id="clipPath248"
       clipPathUnits="userSpaceOnUse"><path
         style="clip-rule:evenodd"
         id="path246"
         d="M -1.907e-6,113.4 H 113.4 V -7.629e-6 L 0,0" /></clipPath><clipPath
       id="clipPath258"
       clipPathUnits="userSpaceOnUse"><path
         style="clip-rule:evenodd"
         id="path256"
         d="M -7.629e-6,113.4 H 113.4 V 0 L -1.1444e-5,7.629e-6" /></clipPath><clipPath
       id="clipPath268"
       clipPathUnits="userSpaceOnUse"><path
         style="clip-rule:evenodd"
         id="path266"
         d="M -7.629e-6,113.4 H 113.4 V 0 L -1.1444e-5,7.629e-6" /></clipPath><clipPath
       id="clipPath278"
       clipPathUnits="userSpaceOnUse"><path
         style="clip-rule:evenodd"
         id="path276"
         d="M -1.907e-6,113.4 H 113.4 V 2.2888e-5 H -5.722e-6" /></clipPath><clipPath
       id="clipPath288"
       clipPathUnits="userSpaceOnUse"><path
         style="clip-rule:evenodd"
         id="path286"
         d="M -1.907e-6,113.4 H 113.4 V 2.2888e-5 H -5.722e-6" /></clipPath><clipPath
       id="clipPath322"
       clipPathUnits="userSpaceOnUse"><path
         style="clip-rule:evenodd"
         id="path320"
         d="M -3.815e-6,113.4 H 113.4 V 7.629e-6 L 0,2.2888e-5" /></clipPath><clipPath
       id="clipPath332"
       clipPathUnits="userSpaceOnUse"><path
         style="clip-rule:evenodd"
         id="path330"
         d="M -3.815e-6,113.4 H 113.4 V 7.629e-6 L 0,2.2888e-5" /></clipPath><clipPath
       id="clipPath342"
       clipPathUnits="userSpaceOnUse"><path
         style="clip-rule:evenodd"
         id="path340"
         d="M 1.907e-6,113.4 H 113.4 V 1.5259e-5 L 0,2.2888e-5" /></clipPath><clipPath
       id="clipPath352"
       clipPathUnits="userSpaceOnUse"><path
         style="clip-rule:evenodd"
         id="path350"
         d="M 1.907e-6,113.4 H 113.4 V 1.5259e-5 L 0,2.2888e-5" /></clipPath><clipPath
       id="clipPath362"
       clipPathUnits="userSpaceOnUse"><path
         style="clip-rule:evenodd"
         id="path360"
         d="M -1.907e-6,113.4 H 113.4 V 2.2888e-5 H -1.5259e-5" /></clipPath><clipPath
       id="clipPath372"
       clipPathUnits="userSpaceOnUse"><path
         style="clip-rule:evenodd"
         id="path370"
         d="M -1.907e-6,113.4 H 113.4 V 2.2888e-5 H -1.5259e-5" /></clipPath><clipPath
       id="clipPath382"
       clipPathUnits="userSpaceOnUse"><path
         style="clip-rule:evenodd"
         id="path380"
         d="M -2.652e-6,113.4 H 113.4 V 7.629e-6 H -1.2189e-5" /></clipPath><clipPath
       id="clipPath392"
       clipPathUnits="userSpaceOnUse"><path
         style="clip-rule:evenodd"
         id="path390"
         d="M -2.652e-6,113.4 H 113.4 V 7.629e-6 H -1.2189e-5" /></clipPath><clipPath
       id="clipPath402"
       clipPathUnits="userSpaceOnUse"><path
         style="clip-rule:evenodd"
         id="path400"
         d="M -1.907e-6,113.4 H 113.4 V 1.5259e-5 H -1.3351e-5" /></clipPath><clipPath
       id="clipPath412"
       clipPathUnits="userSpaceOnUse"><path
         style="clip-rule:evenodd"
         id="path410"
         d="M -1.907e-6,113.4 H 113.4 V 1.5259e-5 H -1.3351e-5" /></clipPath><clipPath
       id="clipPath422"
       clipPathUnits="userSpaceOnUse"><path
         style="clip-rule:evenodd"
         id="path420"
         d="M -3.815e-6,113.4 H 113.4 V 7.629e-6 L 0,2.2888e-5" /></clipPath><clipPath
       id="clipPath432"
       clipPathUnits="userSpaceOnUse"><path
         style="clip-rule:evenodd"
         id="path430"
         d="M -3.815e-6,113.4 H 113.4 V 7.629e-6 L 0,2.2888e-5" /></clipPath><clipPath
       id="clipPath442"
       clipPathUnits="userSpaceOnUse"><path
         style="clip-rule:evenodd"
         id="path440"
         d="M -1.5259e-5,113.4 H 113.4 V 7.629e-6 H -1.5259e-5" /></clipPath><clipPath
       id="clipPath452"
       clipPathUnits="userSpaceOnUse"><path
         style="clip-rule:evenodd"
         id="path450"
         d="M -1.5259e-5,113.4 H 113.4 V 7.629e-6 H -1.5259e-5" /></clipPath><clipPath
       id="clipPath462"
       clipPathUnits="userSpaceOnUse"><path
         style="clip-rule:evenodd"
         id="path460"
         d="M -1.5259e-5,113.4 H 113.4 V 0 H -2.2888e-5" /></clipPath><clipPath
       id="clipPath472"
       clipPathUnits="userSpaceOnUse"><path
         style="clip-rule:evenodd"
         id="path470"
         d="M -1.5259e-5,113.4 H 113.4 V 0 H -2.2888e-5" /></clipPath><clipPath
       id="clipPath482"
       clipPathUnits="userSpaceOnUse"><path
         style="clip-rule:evenodd"
         id="path480"
         d="M -7.629e-6,113.4 H 113.4 V 3.0518e-5 H -1.5259e-5" /></clipPath><clipPath
       id="clipPath492"
       clipPathUnits="userSpaceOnUse"><path
         style="clip-rule:evenodd"
         id="path490"
         d="M -7.629e-6,113.4 H 113.4 V 3.0518e-5 H -1.5259e-5" /></clipPath><clipPath
       id="clipPath502"
       clipPathUnits="userSpaceOnUse"><path
         style="clip-rule:evenodd"
         id="path500"
         d="M -7.629e-6,113.4 H 113.4 V 3.0518e-5 H -7.629e-6" /></clipPath><clipPath
       id="clipPath512"
       clipPathUnits="userSpaceOnUse"><path
         style="clip-rule:evenodd"
         id="path510"
         d="M -7.629e-6,113.4 H 113.4 V 3.0518e-5 H -7.629e-6" /></clipPath><clipPath
       id="clipPath522"
       clipPathUnits="userSpaceOnUse"><path
         style="clip-rule:evenodd"
         id="path520"
         d="M -1.5259e-5,113.4 H 113.4 V 3.8147e-5 L -1.5259e-5,3.0518e-5" /></clipPath><clipPath
       id="clipPath532"
       clipPathUnits="userSpaceOnUse"><path
         style="clip-rule:evenodd"
         id="path530"
         d="M -1.5259e-5,113.4 H 113.4 V 3.8147e-5 L -1.5259e-5,3.0518e-5" /></clipPath><clipPath
       id="clipPath542"
       clipPathUnits="userSpaceOnUse"><path
         style="clip-rule:evenodd"
         id="path540"
         d="M -7.629e-6,113.4 H 113.4 V -7.629e-6 L -2.2888e-5,0" /></clipPath><clipPath
       id="clipPath552"
       clipPathUnits="userSpaceOnUse"><path
         style="clip-rule:evenodd"
         id="path550"
         d="M -7.629e-6,113.4 H 113.4 V -7.629e-6 L -2.2888e-5,0" /></clipPath></defs><g
     transform="matrix(1.3333333,0,0,-1.3333333,0,151.2)"
     id="g10"><g
       id="g12"><g
         clip-path="url(#clipPath18)"
         id="g14"><path
           id="path20"
           style="fill:#ffffff00;fill-opacity:1;fill-rule:evenodd;stroke:none"
           d="M 0,7.629e-6 H 113.4 V 113.40001 H 0 Z" /></g></g><path
       id="path22"
       style="fill:none;stroke:#41719c;stroke-width:1.55999994;stroke-linecap:butt;stroke-linejoin:miter;stroke-miterlimit:10;stroke-dasharray:none;stroke-opacity:1"
       d="M 45.9,38.161 73.395,56.58" /><path
       id="path24"
       style="fill:#deebf7;fill-opacity:1;fill-rule:evenodd;stroke:none"
       d="m 65.82,56.52 c 0,4.208 3.412,7.62 7.62,7.62 4.208,0 7.62,-3.412 7.62,-7.62 0,-4.208 -3.412,-7.62 -7.62,-7.62 -4.208,0 -7.62,3.412 -7.62,7.62 z" /><path
       id="path26"
       style="fill:none;stroke:#41719c;stroke-width:1.55999994;stroke-linecap:butt;stroke-linejoin:miter;stroke-miterlimit:10;stroke-dasharray:none;stroke-opacity:1"
       d="m 65.82,56.52 c 0,4.208 3.412,7.62 7.62,7.62 4.208,0 7.62,-3.412 7.62,-7.62 0,-4.208 -3.412,-7.62 -7.62,-7.62 -4.208,0 -7.62,3.412 -7.62,7.62 z" /><path
       id="path28"
       style="fill:#9dc3e6;fill-opacity:1;fill-rule:evenodd;stroke:none"
       d="M 56.88,21.12 67.14,38.76 77.4,21.12 Z" /><path
       id="path30"
       style="fill:none;stroke:#41719c;stroke-width:0.95999998;stroke-linecap:butt;stroke-linejoin:round;stroke-miterlimit:10;stroke-dasharray:none;stroke-opacity:1"
       d="M 56.88,21.12 67.14,38.76 77.4,21.12 Z" /><path
       id="path32"
       style="fill:#bdd7ee;fill-opacity:1;fill-rule:evenodd;stroke:none"
       d="M 46.56,3.36 56.88,21.12 67.2,3.36 Z" /><path
       id="path34"
       style="fill:none;stroke:#41719c;stroke-width:0.95999998;stroke-linecap:butt;stroke-linejoin:round;stroke-miterlimit:10;stroke-dasharray:none;stroke-opacity:1"
       d="M 46.56,3.36 56.88,21.12 67.2,3.36 Z" /><path
       id="path36"
       style="fill:#deebf7;fill-opacity:1;fill-rule:evenodd;stroke:none"
       d="M 56.88,21.12 46.62,3.36 36.36,21.12 Z" /><path
       id="path38"
       style="fill:none;stroke:#41719c;stroke-width:0.95999998;stroke-linecap:butt;stroke-linejoin:round;stroke-miterlimit:10;stroke-dasharray:none;stroke-opacity:1"
       d="M 56.88,21.12 46.62,3.36 36.36,21.12 Z" /><path
       id="path40"
       style="fill:#deebf7;fill-opacity:1;fill-rule:evenodd;stroke:none"
       d="M 77.4,21.12 67.14,3.36 56.88,21.12 Z" /><path
       id="path42"
       style="fill:none;stroke:#41719c;stroke-width:0.95999998;stroke-linecap:butt;stroke-linejoin:round;stroke-miterlimit:10;stroke-dasharray:none;stroke-opacity:1"
       d="M 77.4,21.12 67.14,3.36 56.88,21.12 Z" /><path
       id="path44"
       style="fill:#deebf7;fill-opacity:1;fill-rule:evenodd;stroke:none"
       d="M 67.2,38.76 56.88,21.12 46.56,38.76 Z" /><path
       id="path46"
       style="fill:none;stroke:#41719c;stroke-width:0.95999998;stroke-linecap:butt;stroke-linejoin:round;stroke-miterlimit:10;stroke-dasharray:none;stroke-opacity:1"
       d="M 67.2,38.76 56.88,21.12 46.56,38.76 Z" /><path
       id="path48"
       style="fill:#9dc3e6;fill-opacity:1;fill-rule:evenodd;stroke:none"
       d="M 36.24,21.12 46.56,38.76 56.88,21.12 Z" /><path
       id="path50"
       style="fill:none;stroke:#41719c;stroke-width:0.95999998;stroke-linecap:butt;stroke-linejoin:round;stroke-miterlimit:10;stroke-dasharray:none;stroke-opacity:1"
       d="M 36.24,21.12 46.56,38.76 56.88,21.12 Z" /><g
       id="g52"><g
         clip-path="url(#clipPath58)"
         id="g54"><path
           id="path60"
           style="fill:#9dc3e6;fill-opacity:1;fill-rule:evenodd;stroke:none"
           d="m 87.722,38.823 -10.24,17.751 20.493,0.075 z" /></g></g><g
       id="g62"><g
         clip-path="url(#clipPath68)"
         id="g64"><path
           id="path70"
           style="fill:none;stroke:#41719c;stroke-width:1;stroke-linecap:butt;stroke-linejoin:round;stroke-miterlimit:10;stroke-dasharray:none;stroke-opacity:1"
           d="m 87.722,38.823 -10.24,17.751 20.493,0.075 z" /></g></g><g
       id="g72"><g
         clip-path="url(#clipPath78)"
         id="g74"><path
           id="path80"
           style="fill:#bdd7ee;fill-opacity:1;fill-rule:evenodd;stroke:none"
           d="M 97.963,21.072 87.722,38.823 108.22,38.897 Z" /></g></g><g
       id="g82"><g
         clip-path="url(#clipPath88)"
         id="g84"><path
           id="path90"
           style="fill:none;stroke:#41719c;stroke-width:1;stroke-linecap:butt;stroke-linejoin:round;stroke-miterlimit:10;stroke-dasharray:none;stroke-opacity:1"
           d="M 97.963,21.072 87.722,38.823 108.22,38.897 Z" /></g></g><g
       id="g92"><g
         clip-path="url(#clipPath98)"
         id="g94"><path
           id="path100"
           style="fill:#deebf7;fill-opacity:1;fill-rule:evenodd;stroke:none"
           d="M 87.722,38.823 97.963,21.072 77.47,20.998 Z" /></g></g><g
       id="g102"><g
         clip-path="url(#clipPath108)"
         id="g104"><path
           id="path110"
           style="fill:none;stroke:#41719c;stroke-width:1;stroke-linecap:butt;stroke-linejoin:round;stroke-miterlimit:10;stroke-dasharray:none;stroke-opacity:1"
           d="M 87.722,38.823 97.963,21.072 77.47,20.998 Z" /></g></g><g
       id="g112"><g
         clip-path="url(#clipPath118)"
         id="g114"><path
           id="path120"
           style="fill:#deebf7;fill-opacity:1;fill-rule:evenodd;stroke:none"
           d="M 97.975,56.649 108.22,38.898 87.722,38.823 Z" /></g></g><g
       id="g122"><g
         clip-path="url(#clipPath128)"
         id="g124"><path
           id="path130"
           style="fill:none;stroke:#41719c;stroke-width:1;stroke-linecap:butt;stroke-linejoin:round;stroke-miterlimit:10;stroke-dasharray:none;stroke-opacity:1"
           d="M 97.975,56.649 108.22,38.898 87.722,38.823 Z" /></g></g><g
       id="g132"><g
         clip-path="url(#clipPath138)"
         id="g134"><path
           id="path140"
           style="fill:#deebf7;fill-opacity:1;fill-rule:evenodd;stroke:none"
           d="M 77.482,56.574 87.722,38.823 67.229,38.749 Z" /></g></g><g
       id="g142"><g
         clip-path="url(#clipPath148)"
         id="g144"><path
           id="path150"
           style="fill:none;stroke:#41719c;stroke-width:1;stroke-linecap:butt;stroke-linejoin:round;stroke-miterlimit:10;stroke-dasharray:none;stroke-opacity:1"
           d="M 77.482,56.574 87.722,38.823 67.229,38.749 Z" /></g></g><g
       id="g152"><g
         clip-path="url(#clipPath158)"
         id="g154"><path
           id="path160"
           style="fill:#9dc3e6;fill-opacity:1;fill-rule:evenodd;stroke:none"
           d="M 77.453,20.968 67.212,38.72 87.706,38.794 Z" /></g></g><g
       id="g162"><g
         clip-path="url(#clipPath168)"
         id="g164"><path
           id="path170"
           style="fill:none;stroke:#41719c;stroke-width:1;stroke-linecap:butt;stroke-linejoin:round;stroke-miterlimit:10;stroke-dasharray:none;stroke-opacity:1"
           d="M 77.453,20.968 67.212,38.72 87.706,38.794 Z" /></g></g><g
       id="g172"><g
         clip-path="url(#clipPath178)"
         id="g174"><path
           id="path180"
           style="fill:#9dc3e6;fill-opacity:1;fill-rule:evenodd;stroke:none"
           d="M 26.108,38.89 46.601,38.849 36.39,21.081 Z" /></g></g><g
       id="g182"><g
         clip-path="url(#clipPath188)"
         id="g184"><path
           id="path190"
           style="fill:none;stroke:#41719c;stroke-width:1;stroke-linecap:butt;stroke-linejoin:round;stroke-miterlimit:10;stroke-dasharray:none;stroke-opacity:1"
           d="M 26.108,38.89 46.601,38.849 36.39,21.081 Z" /></g></g><g
       id="g192"><g
         clip-path="url(#clipPath198)"
         id="g194"><path
           id="path200"
           style="fill:#bdd7ee;fill-opacity:1;fill-rule:evenodd;stroke:none"
           d="M 5.6148,38.931 26.108,38.89 15.896,21.122 Z" /></g></g><g
       id="g202"><g
         clip-path="url(#clipPath208)"
         id="g204"><path
           id="path210"
           style="fill:none;stroke:#41719c;stroke-width:1;stroke-linecap:butt;stroke-linejoin:round;stroke-miterlimit:10;stroke-dasharray:none;stroke-opacity:1"
           d="M 5.6148,38.931 26.108,38.89 15.896,21.122 Z" /></g></g><g
       id="g212"><g
         clip-path="url(#clipPath218)"
         id="g214"><path
           id="path220"
           style="fill:#deebf7;fill-opacity:1;fill-rule:evenodd;stroke:none"
           d="M 26.108,38.89 5.6147,38.931 15.826,56.699 Z" /></g></g><g
       id="g222"><g
         clip-path="url(#clipPath228)"
         id="g224"><path
           id="path230"
           style="fill:none;stroke:#41719c;stroke-width:1;stroke-linecap:butt;stroke-linejoin:round;stroke-miterlimit:10;stroke-dasharray:none;stroke-opacity:1"
           d="M 26.108,38.89 5.6147,38.931 15.826,56.699 Z" /></g></g><g
       id="g232"><g
         clip-path="url(#clipPath238)"
         id="g234"><path
           id="path240"
           style="fill:#deebf7;fill-opacity:1;fill-rule:evenodd;stroke:none"
           d="M 36.39,21.081 15.896,21.122 26.108,38.89 Z" /></g></g><g
       id="g242"><g
         clip-path="url(#clipPath248)"
         id="g244"><path
           id="path250"
           style="fill:none;stroke:#41719c;stroke-width:1;stroke-linecap:butt;stroke-linejoin:round;stroke-miterlimit:10;stroke-dasharray:none;stroke-opacity:1"
           d="M 36.39,21.081 15.896,21.122 26.108,38.89 Z" /></g></g><g
       id="g252"><g
         clip-path="url(#clipPath258)"
         id="g254"><path
           id="path260"
           style="fill:#deebf7;fill-opacity:1;fill-rule:evenodd;stroke:none"
           d="M 46.601,38.849 26.108,38.89 36.32,56.658 Z" /></g></g><g
       id="g262"><g
         clip-path="url(#clipPath268)"
         id="g264"><path
           id="path270"
           style="fill:none;stroke:#41719c;stroke-width:1;stroke-linecap:butt;stroke-linejoin:round;stroke-miterlimit:10;stroke-dasharray:none;stroke-opacity:1"
           d="M 46.601,38.849 26.108,38.89 36.32,56.658 Z" /></g></g><g
       id="g272"><g
         clip-path="url(#clipPath278)"
         id="g274"><path
           id="path280"
           style="fill:#9dc3e6;fill-opacity:1;fill-rule:evenodd;stroke:none"
           d="M 15.81,56.728 36.303,56.687 26.091,38.919 Z" /></g></g><g
       id="g282"><g
         clip-path="url(#clipPath288)"
         id="g284"><path
           id="path290"
           style="fill:none;stroke:#41719c;stroke-width:1;stroke-linecap:butt;stroke-linejoin:round;stroke-miterlimit:10;stroke-dasharray:none;stroke-opacity:1"
           d="M 15.81,56.728 36.303,56.687 26.091,38.919 Z" /></g></g><path
       id="path292"
       style="fill:#9dc3e6;fill-opacity:1;fill-rule:evenodd;stroke:none"
       d="M 56.88,92.04 46.62,74.4 36.36,92.04 Z" /><path
       id="path294"
       style="fill:none;stroke:#41719c;stroke-width:0.95999998;stroke-linecap:butt;stroke-linejoin:round;stroke-miterlimit:10;stroke-dasharray:none;stroke-opacity:1"
       d="M 56.88,92.04 46.62,74.4 36.36,92.04 Z" /><path
       id="path296"
       style="fill:#bdd7ee;fill-opacity:1;fill-rule:evenodd;stroke:none"
       d="M 67.2,109.8 56.88,92.04 46.56,109.8 Z" /><path
       id="path298"
       style="fill:none;stroke:#41719c;stroke-width:0.95999998;stroke-linecap:butt;stroke-linejoin:round;stroke-miterlimit:10;stroke-dasharray:none;stroke-opacity:1"
       d="M 67.2,109.8 56.88,92.04 46.56,109.8 Z" /><path
       id="path300"
       style="fill:#deebf7;fill-opacity:1;fill-rule:evenodd;stroke:none"
       d="M 56.88,92.04 67.14,109.8 77.4,92.04 Z" /><path
       id="path302"
       style="fill:none;stroke:#41719c;stroke-width:0.95999998;stroke-linecap:butt;stroke-linejoin:round;stroke-miterlimit:10;stroke-dasharray:none;stroke-opacity:1"
       d="M 56.88,92.04 67.14,109.8 77.4,92.04 Z" /><path
       id="path304"
       style="fill:#deebf7;fill-opacity:1;fill-rule:evenodd;stroke:none"
       d="M 36.36,92.04 46.62,109.8 56.88,92.04 Z" /><path
       id="path306"
       style="fill:none;stroke:#41719c;stroke-width:0.95999998;stroke-linecap:butt;stroke-linejoin:round;stroke-miterlimit:10;stroke-dasharray:none;stroke-opacity:1"
       d="M 36.36,92.04 46.62,109.8 56.88,92.04 Z" /><path
       id="path308"
       style="fill:#deebf7;fill-opacity:1;fill-rule:evenodd;stroke:none"
       d="M 46.56,74.4 56.88,92.04 67.2,74.4 Z" /><path
       id="path310"
       style="fill:none;stroke:#41719c;stroke-width:0.95999998;stroke-linecap:butt;stroke-linejoin:round;stroke-miterlimit:10;stroke-dasharray:none;stroke-opacity:1"
       d="M 46.56,74.4 56.88,92.04 67.2,74.4 Z" /><path
       id="path312"
       style="fill:#9dc3e6;fill-opacity:1;fill-rule:evenodd;stroke:none"
       d="M 77.52,92.04 67.2,74.4 56.88,92.04 Z" /><path
       id="path314"
       style="fill:none;stroke:#41719c;stroke-width:0.95999998;stroke-linecap:butt;stroke-linejoin:round;stroke-miterlimit:10;stroke-dasharray:none;stroke-opacity:1"
       d="M 77.52,92.04 67.2,74.4 56.88,92.04 Z" /><g
       id="g316"><g
         clip-path="url(#clipPath322)"
         id="g318"><path
           id="path324"
           style="fill:#9dc3e6;fill-opacity:1;fill-rule:evenodd;stroke:none"
           d="M 26.019,74.339 36.26,56.588 15.766,56.514 Z" /></g></g><g
       id="g326"><g
         clip-path="url(#clipPath332)"
         id="g328"><path
           id="path334"
           style="fill:none;stroke:#41719c;stroke-width:1;stroke-linecap:butt;stroke-linejoin:round;stroke-miterlimit:10;stroke-dasharray:none;stroke-opacity:1"
           d="M 26.019,74.339 36.26,56.588 15.766,56.514 Z" /></g></g><g
       id="g336"><g
         clip-path="url(#clipPath342)"
         id="g338"><path
           id="path344"
           style="fill:#bdd7ee;fill-opacity:1;fill-rule:evenodd;stroke:none"
           d="M 15.779,92.091 26.019,74.339 5.526,74.265 Z" /></g></g><g
       id="g346"><g
         clip-path="url(#clipPath352)"
         id="g348"><path
           id="path354"
           style="fill:none;stroke:#41719c;stroke-width:1;stroke-linecap:butt;stroke-linejoin:round;stroke-miterlimit:10;stroke-dasharray:none;stroke-opacity:1"
           d="M 15.779,92.091 26.019,74.339 5.526,74.265 Z" /></g></g><g
       id="g356"><g
         clip-path="url(#clipPath362)"
         id="g358"><path
           id="path364"
           style="fill:#deebf7;fill-opacity:1;fill-rule:evenodd;stroke:none"
           d="m 26.019,74.339 -10.24,17.752 20.493,0.074 z" /></g></g><g
       id="g366"><g
         clip-path="url(#clipPath372)"
         id="g368"><path
           id="path374"
           style="fill:none;stroke:#41719c;stroke-width:1;stroke-linecap:butt;stroke-linejoin:round;stroke-miterlimit:10;stroke-dasharray:none;stroke-opacity:1"
           d="m 26.019,74.339 -10.24,17.752 20.493,0.074 z" /></g></g><g
       id="g376"><g
         clip-path="url(#clipPath382)"
         id="g378"><path
           id="path384"
           style="fill:#deebf7;fill-opacity:1;fill-rule:evenodd;stroke:none"
           d="M 15.766,56.514 5.5259,74.265 26.019,74.339 Z" /></g></g><g
       id="g386"><g
         clip-path="url(#clipPath392)"
         id="g388"><path
           id="path394"
           style="fill:none;stroke:#41719c;stroke-width:1;stroke-linecap:butt;stroke-linejoin:round;stroke-miterlimit:10;stroke-dasharray:none;stroke-opacity:1"
           d="M 15.766,56.514 5.5259,74.265 26.019,74.339 Z" /></g></g><g
       id="g396"><g
         clip-path="url(#clipPath402)"
         id="g398"><path
           id="path404"
           style="fill:#deebf7;fill-opacity:1;fill-rule:evenodd;stroke:none"
           d="M 36.26,56.588 26.019,74.339 46.512,74.414 Z" /></g></g><g
       id="g406"><g
         clip-path="url(#clipPath412)"
         id="g408"><path
           id="path414"
           style="fill:none;stroke:#41719c;stroke-width:1;stroke-linecap:butt;stroke-linejoin:round;stroke-miterlimit:10;stroke-dasharray:none;stroke-opacity:1"
           d="M 36.26,56.588 26.019,74.339 46.512,74.414 Z" /></g></g><g
       id="g416"><g
         clip-path="url(#clipPath422)"
         id="g418"><path
           id="path424"
           style="fill:#9dc3e6;fill-opacity:1;fill-rule:evenodd;stroke:none"
           d="M 36.288,92.194 46.529,74.443 26.036,74.369 Z" /></g></g><g
       id="g426"><g
         clip-path="url(#clipPath432)"
         id="g428"><path
           id="path434"
           style="fill:none;stroke:#41719c;stroke-width:1;stroke-linecap:butt;stroke-linejoin:round;stroke-miterlimit:10;stroke-dasharray:none;stroke-opacity:1"
           d="M 36.288,92.194 46.529,74.443 26.036,74.369 Z" /></g></g><g
       id="g436"><g
         clip-path="url(#clipPath442)"
         id="g438"><path
           id="path444"
           style="fill:#9dc3e6;fill-opacity:1;fill-rule:evenodd;stroke:none"
           d="M 87.633,74.273 67.14,74.314 77.352,92.082 Z" /></g></g><g
       id="g446"><g
         clip-path="url(#clipPath452)"
         id="g448"><path
           id="path454"
           style="fill:none;stroke:#41719c;stroke-width:1;stroke-linecap:butt;stroke-linejoin:round;stroke-miterlimit:10;stroke-dasharray:none;stroke-opacity:1"
           d="M 87.633,74.273 67.14,74.314 77.352,92.082 Z" /></g></g><g
       id="g456"><g
         clip-path="url(#clipPath462)"
         id="g458"><path
           id="path464"
           style="fill:#bdd7ee;fill-opacity:1;fill-rule:evenodd;stroke:none"
           d="M 108.13,74.231 87.633,74.273 97.845,92.04 Z" /></g></g><g
       id="g466"><g
         clip-path="url(#clipPath472)"
         id="g468"><path
           id="path474"
           style="fill:none;stroke:#41719c;stroke-width:1;stroke-linecap:butt;stroke-linejoin:round;stroke-miterlimit:10;stroke-dasharray:none;stroke-opacity:1"
           d="M 108.13,74.231 87.633,74.273 97.845,92.04 Z" /></g></g><g
       id="g476"><g
         clip-path="url(#clipPath482)"
         id="g478"><path
           id="path484"
           style="fill:#deebf7;fill-opacity:1;fill-rule:evenodd;stroke:none"
           d="M 87.633,74.272 108.13,74.231 97.915,56.464 Z" /></g></g><g
       id="g486"><g
         clip-path="url(#clipPath492)"
         id="g488"><path
           id="path494"
           style="fill:none;stroke:#41719c;stroke-width:1;stroke-linecap:butt;stroke-linejoin:round;stroke-miterlimit:10;stroke-dasharray:none;stroke-opacity:1"
           d="M 87.633,74.272 108.13,74.231 97.915,56.464 Z" /></g></g><g
       id="g496"><g
         clip-path="url(#clipPath502)"
         id="g498"><path
           id="path504"
           style="fill:#deebf7;fill-opacity:1;fill-rule:evenodd;stroke:none"
           d="M 77.352,92.081 97.845,92.04 87.633,74.273 Z" /></g></g><g
       id="g506"><g
         clip-path="url(#clipPath512)"
         id="g508"><path
           id="path514"
           style="fill:none;stroke:#41719c;stroke-width:1;stroke-linecap:butt;stroke-linejoin:round;stroke-miterlimit:10;stroke-dasharray:none;stroke-opacity:1"
           d="M 77.352,92.081 97.845,92.04 87.633,74.273 Z" /></g></g><g
       id="g516"><g
         clip-path="url(#clipPath522)"
         id="g518"><path
           id="path524"
           style="fill:#deebf7;fill-opacity:1;fill-rule:evenodd;stroke:none"
           d="M 67.14,74.314 87.633,74.273 77.422,56.505 Z" /></g></g><g
       id="g526"><g
         clip-path="url(#clipPath532)"
         id="g528"><path
           id="path534"
           style="fill:none;stroke:#41719c;stroke-width:1;stroke-linecap:butt;stroke-linejoin:round;stroke-miterlimit:10;stroke-dasharray:none;stroke-opacity:1"
           d="M 67.14,74.314 87.633,74.273 77.422,56.505 Z" /></g></g><g
       id="g536"><g
         clip-path="url(#clipPath542)"
         id="g538"><path
           id="path544"
           style="fill:#9dc3e6;fill-opacity:1;fill-rule:evenodd;stroke:none"
           d="M 97.932,56.435 77.439,56.476 87.65,74.243 Z" /></g></g><g
       id="g546"><g
         clip-path="url(#clipPath552)"
         id="g548"><path
           id="path554"
           style="fill:none;stroke:#41719c;stroke-width:1;stroke-linecap:butt;stroke-linejoin:round;stroke-miterlimit:10;stroke-dasharray:none;stroke-opacity:1"
           d="M 97.932,56.435 77.439,56.476 87.65,74.243 Z" /></g></g><path
       id="path556"
       style="fill:none;stroke:#41719c;stroke-width:1.55999994;stroke-linecap:butt;stroke-linejoin:miter;stroke-miterlimit:8;stroke-dasharray:none;stroke-opacity:1"
       d="M 45.9,37.585 46.208,71.94" /><path
       id="path558"
       style="fill:#deebf7;fill-opacity:1;fill-rule:evenodd;stroke:none"
       d="m 38.34,71.28 c 0,4.208 3.412,7.62 7.62,7.62 4.208,0 7.62,-3.412 7.62,-7.62 0,-4.208 -3.412,-7.62 -7.62,-7.62 -4.208,0 -7.62,3.412 -7.62,7.62 z" /><path
       id="path560"
       style="fill:none;stroke:#41719c;stroke-width:1.55999994;stroke-linecap:butt;stroke-linejoin:miter;stroke-miterlimit:8;stroke-dasharray:none;stroke-opacity:1"
       d="m 38.34,71.28 c 0,4.208 3.412,7.62 7.62,7.62 4.208,0 7.62,-3.412 7.62,-7.62 0,-4.208 -3.412,-7.62 -7.62,-7.62 -4.208,0 -7.62,3.412 -7.62,7.62 z" /><path
       id="path562"
       style="fill:#bdd7ee;fill-opacity:1;fill-rule:evenodd;stroke:none"
       d="m 38.1,37.62 c 0,4.242 3.412,7.68 7.62,7.68 4.208,0 7.62,-3.438 7.62,-7.68 0,-4.242 -3.412,-7.68 -7.62,-7.68 -4.208,0 -7.62,3.438 -7.62,7.68 z" /><path
       id="path564"
       style="fill:none;stroke:#41719c;stroke-width:1.55999994;stroke-linecap:butt;stroke-linejoin:miter;stroke-miterlimit:8;stroke-dasharray:none;stroke-opacity:1"
       d="m 38.1,37.62 c 0,4.242 3.412,7.68 7.62,7.68 4.208,0 7.62,-3.438 7.62,-7.68 0,-4.242 -3.412,-7.68 -7.62,-7.68 -4.208,0 -7.62,3.438 -7.62,7.68 z" /></g></svg>