<?xml version="1.0" encoding="UTF-8" standalone="no"?>
<svg
   xmlns:dc="http://purl.org/dc/elements/1.1/"
   xmlns:cc="http://creativecommons.org/ns#"
   xmlns:rdf="http://www.w3.org/1999/02/22-rdf-syntax-ns#"
   xmlns:svg="http://www.w3.org/2000/svg"
   xmlns="http://www.w3.org/2000/svg"
   viewBox="0 0 151.2 151.2"
   height="16"
   width="16"
   xml:space="preserve"
   id="svg2"
   version="1.1"><metadata
     id="metadata8"><rdf:RDF><cc:Work
         rdf:about=""><dc:format>image/svg+xml</dc:format><dc:type
           rdf:resource="http://purl.org/dc/dcmitype/StillImage" /></cc:Work></rdf:RDF></metadata><defs
     id="defs6"><clipPath
       id="clipPath18"
       clipPathUnits="userSpaceOnUse"><path
         style="clip-rule:evenodd"
         id="path16"
         d="M 0,2.2888e-5 H 113.4 V 113.40002 H 0 Z" /></clipPath><clipPath
       id="clipPath28"
       clipPathUnits="userSpaceOnUse"><path
         style="clip-rule:evenodd"
         id="path26"
         d="M -7.629e-6,113.4 H 113.4 V 1.5259e-5 H -1.9073e-5" /></clipPath><clipPath
       id="clipPath38"
       clipPathUnits="userSpaceOnUse"><path
         style="clip-rule:evenodd"
         id="path36"
         d="M -7.629e-6,113.4 H 113.4 V 1.5259e-5 H -1.9073e-5" /></clipPath><clipPath
       id="clipPath48"
       clipPathUnits="userSpaceOnUse"><path
         style="clip-rule:evenodd"
         id="path46"
         d="M -7.629e-6,113.4 H 113.4 V -2.2888e-5 L -7.629e-6,-1.5259e-5" /></clipPath><clipPath
       id="clipPath58"
       clipPathUnits="userSpaceOnUse"><path
         style="clip-rule:evenodd"
         id="path56"
         d="M -7.629e-6,113.4 H 113.4 V -2.2888e-5 L -7.629e-6,-1.5259e-5" /></clipPath><clipPath
       id="clipPath68"
       clipPathUnits="userSpaceOnUse"><path
         style="clip-rule:evenodd"
         id="path66"
         d="M -7.629e-6,113.4 H 113.4 V 2.2888e-5 L -3.815e-6,1.5259e-5" /></clipPath><clipPath
       id="clipPath78"
       clipPathUnits="userSpaceOnUse"><path
         style="clip-rule:evenodd"
         id="path76"
         d="M -7.629e-6,113.4 H 113.4 V 2.2888e-5 L -3.815e-6,1.5259e-5" /></clipPath><clipPath
       id="clipPath88"
       clipPathUnits="userSpaceOnUse"><path
         style="clip-rule:evenodd"
         id="path86"
         d="M -1.5259e-5,113.4 H 113.4 V -1.5259e-5 H -1.1444e-5" /></clipPath><clipPath
       id="clipPath98"
       clipPathUnits="userSpaceOnUse"><path
         style="clip-rule:evenodd"
         id="path96"
         d="M -1.5259e-5,113.4 H 113.4 V -1.5259e-5 H -1.1444e-5" /></clipPath><clipPath
       id="clipPath108"
       clipPathUnits="userSpaceOnUse"><path
         style="clip-rule:evenodd"
         id="path106"
         d="M -7.629e-6,113.4 H 113.4 V 2.2888e-5 H 3.815e-6" /></clipPath><clipPath
       id="clipPath118"
       clipPathUnits="userSpaceOnUse"><path
         style="clip-rule:evenodd"
         id="path116"
         d="M -7.629e-6,113.4 H 113.4 V 2.2888e-5 H 3.815e-6" /></clipPath><clipPath
       id="clipPath128"
       clipPathUnits="userSpaceOnUse"><path
         style="clip-rule:evenodd"
         id="path126"
         d="M -3.815e-6,113.4 H 113.4 V -7.629e-6 H -7.629e-6" /></clipPath><clipPath
       id="clipPath138"
       clipPathUnits="userSpaceOnUse"><path
         style="clip-rule:evenodd"
         id="path136"
         d="M -3.815e-6,113.4 H 113.4 V -7.629e-6 H -7.629e-6" /></clipPath><clipPath
       id="clipPath148"
       clipPathUnits="userSpaceOnUse"><path
         style="clip-rule:evenodd"
         id="path146"
         d="M -3.815e-6,113.4 H 113.4 V 1.5259e-5 H -7.629e-6" /></clipPath><clipPath
       id="clipPath158"
       clipPathUnits="userSpaceOnUse"><path
         style="clip-rule:evenodd"
         id="path156"
         d="M -3.815e-6,113.4 H 113.4 V 1.5259e-5 H -7.629e-6" /></clipPath><clipPath
       id="clipPath168"
       clipPathUnits="userSpaceOnUse"><path
         style="clip-rule:evenodd"
         id="path166"
         d="M 0,113.4 H 113.4 V -2.2888e-5 L -7.629e-6,-7.629e-6" /></clipPath><clipPath
       id="clipPath178"
       clipPathUnits="userSpaceOnUse"><path
         style="clip-rule:evenodd"
         id="path176"
         d="M 0,113.4 H 113.4 V -2.2888e-5 L -7.629e-6,-7.629e-6" /></clipPath><clipPath
       id="clipPath188"
       clipPathUnits="userSpaceOnUse"><path
         style="clip-rule:evenodd"
         id="path186"
         d="M -1.1444e-5,113.4 H 113.4 V 0 H -7.629e-6" /></clipPath><clipPath
       id="clipPath198"
       clipPathUnits="userSpaceOnUse"><path
         style="clip-rule:evenodd"
         id="path196"
         d="M -1.1444e-5,113.4 H 113.4 V 0 H -7.629e-6" /></clipPath><clipPath
       id="clipPath208"
       clipPathUnits="userSpaceOnUse"><path
         style="clip-rule:evenodd"
         id="path206"
         d="M -3.815e-6,113.4 H 113.4 V 7.629e-6 H 3.815e-6" /></clipPath><clipPath
       id="clipPath218"
       clipPathUnits="userSpaceOnUse"><path
         style="clip-rule:evenodd"
         id="path216"
         d="M -3.815e-6,113.4 H 113.4 V 7.629e-6 H 3.815e-6" /></clipPath><clipPath
       id="clipPath228"
       clipPathUnits="userSpaceOnUse"><path
         style="clip-rule:evenodd"
         id="path226"
         d="M -7.629e-6,113.4 H 113.4 V 1.5259e-5 L -1.5259e-5,7.629e-6" /></clipPath><clipPath
       id="clipPath238"
       clipPathUnits="userSpaceOnUse"><path
         style="clip-rule:evenodd"
         id="path236"
         d="M -7.629e-6,113.4 H 113.4 V 1.5259e-5 L -1.5259e-5,7.629e-6" /></clipPath><clipPath
       id="clipPath248"
       clipPathUnits="userSpaceOnUse"><path
         style="clip-rule:evenodd"
         id="path246"
         d="M -7.629e-6,113.4 H 113.4 V 0 H -3.815e-6" /></clipPath><clipPath
       id="clipPath258"
       clipPathUnits="userSpaceOnUse"><path
         style="clip-rule:evenodd"
         id="path256"
         d="M -7.629e-6,113.4 H 113.4 V 0 H -3.815e-6" /></clipPath></defs><g
     transform="matrix(1.3333333,0,0,-1.3333333,0,151.2)"
     id="g10"><g
       id="g12"><g
         clip-path="url(#clipPath18)"
         id="g14"><path
           id="path20"
           style="fill:#ffffff00;fill-opacity:1;fill-rule:evenodd;stroke:none"
           d="M 0,7.629e-6 H 113.4 V 113.40001 H 0 Z" /></g></g><g
       id="g22"><g
         clip-path="url(#clipPath28)"
         id="g24"><path
           id="path30"
           style="fill:#deebf7;fill-opacity:1;fill-rule:evenodd;stroke:none"
           d="M 62.007,54.727 87.04,70.825 116.77,69.4 Z" /></g></g><g
       id="g32"><g
         clip-path="url(#clipPath38)"
         id="g34"><path
           id="path40"
           style="fill:none;stroke:#41719c;stroke-width:1;stroke-linecap:butt;stroke-linejoin:miter;stroke-miterlimit:10;stroke-dasharray:none;stroke-opacity:1"
           d="M 62.007,54.727 87.04,70.825 116.77,69.4 Z" /></g></g><g
       id="g42"><g
         clip-path="url(#clipPath48)"
         id="g44"><path
           id="path50"
           style="fill:#deebf7;fill-opacity:1;fill-rule:evenodd;stroke:none"
           d="M 51.138,58.858 26.106,42.76 -3.6227,44.185 Z" /></g></g><g
       id="g52"><g
         clip-path="url(#clipPath58)"
         id="g54"><path
           id="path60"
           style="fill:none;stroke:#41719c;stroke-width:1;stroke-linecap:butt;stroke-linejoin:miter;stroke-miterlimit:10;stroke-dasharray:none;stroke-opacity:1"
           d="M 51.138,58.858 26.106,42.76 -3.6227,44.185 Z" /></g></g><g
       id="g62"><g
         clip-path="url(#clipPath68)"
         id="g64"><path
           id="path70"
           style="fill:#bdd7ee;fill-opacity:1;fill-rule:evenodd;stroke:none"
           d="M 60.246,52.287 89.975,53.712 115.01,37.613 Z" /></g></g><g
       id="g72"><g
         clip-path="url(#clipPath78)"
         id="g74"><path
           id="path80"
           style="fill:none;stroke:#41719c;stroke-width:1;stroke-linecap:butt;stroke-linejoin:miter;stroke-miterlimit:10;stroke-dasharray:none;stroke-opacity:1"
           d="M 60.246,52.287 89.975,53.712 115.01,37.613 Z" /></g></g><g
       id="g82"><g
         clip-path="url(#clipPath88)"
         id="g84"><path
           id="path90"
           style="fill:#bdd7ee;fill-opacity:1;fill-rule:evenodd;stroke:none"
           d="M 52.899,61.298 23.171,59.873 -1.8619,75.971 Z" /></g></g><g
       id="g92"><g
         clip-path="url(#clipPath98)"
         id="g94"><path
           id="path100"
           style="fill:none;stroke:#41719c;stroke-width:1;stroke-linecap:butt;stroke-linejoin:miter;stroke-miterlimit:10;stroke-dasharray:none;stroke-opacity:1"
           d="M 52.899,61.298 23.171,59.873 -1.8619,75.971 Z" /></g></g><g
       id="g102"><g
         clip-path="url(#clipPath108)"
         id="g104"><path
           id="path110"
           style="fill:#9dc3e6;fill-opacity:1;fill-rule:evenodd;stroke:none"
           d="M 57.501,51.053 83.959,37.423 97.589,10.965 Z" /></g></g><g
       id="g112"><g
         clip-path="url(#clipPath118)"
         id="g114"><path
           id="path120"
           style="fill:none;stroke:#41719c;stroke-width:1;stroke-linecap:butt;stroke-linejoin:miter;stroke-miterlimit:10;stroke-dasharray:none;stroke-opacity:1"
           d="M 57.501,51.053 83.959,37.423 97.589,10.965 Z" /></g></g><g
       id="g122"><g
         clip-path="url(#clipPath128)"
         id="g124"><path
           id="path130"
           style="fill:#9dc3e6;fill-opacity:1;fill-rule:evenodd;stroke:none"
           d="M 55.644,62.531 29.186,76.161 15.556,102.62 Z" /></g></g><g
       id="g132"><g
         clip-path="url(#clipPath138)"
         id="g134"><path
           id="path140"
           style="fill:none;stroke:#41719c;stroke-width:1;stroke-linecap:butt;stroke-linejoin:miter;stroke-miterlimit:10;stroke-dasharray:none;stroke-opacity:1"
           d="M 55.644,62.531 29.186,76.161 15.556,102.62 Z" /></g></g><g
       id="g142"><g
         clip-path="url(#clipPath148)"
         id="g144"><path
           id="path150"
           style="fill:#deebf7;fill-opacity:1;fill-rule:evenodd;stroke:none"
           d="M 54.507,51.358 70.606,26.325 69.181,-3.4032 Z" /></g></g><g
       id="g152"><g
         clip-path="url(#clipPath158)"
         id="g154"><path
           id="path160"
           style="fill:none;stroke:#41719c;stroke-width:1;stroke-linecap:butt;stroke-linejoin:miter;stroke-miterlimit:10;stroke-dasharray:none;stroke-opacity:1"
           d="M 54.507,51.358 70.606,26.325 69.181,-3.4032 Z" /></g></g><g
       id="g162"><g
         clip-path="url(#clipPath168)"
         id="g164"><path
           id="path170"
           style="fill:#deebf7;fill-opacity:1;fill-rule:evenodd;stroke:none"
           d="M 58.638,62.227 42.54,87.26 l 1.425,29.73 z" /></g></g><g
       id="g172"><g
         clip-path="url(#clipPath178)"
         id="g174"><path
           id="path180"
           style="fill:none;stroke:#41719c;stroke-width:1;stroke-linecap:butt;stroke-linejoin:miter;stroke-miterlimit:10;stroke-dasharray:none;stroke-opacity:1"
           d="M 58.638,62.227 42.54,87.26 l 1.425,29.73 z" /></g></g><g
       id="g182"><g
         clip-path="url(#clipPath188)"
         id="g184"><path
           id="path190"
           style="fill:#bdd7ee;fill-opacity:1;fill-rule:evenodd;stroke:none"
           d="M 61.132,60.48 59.707,90.209 75.805,115.24 Z" /></g></g><g
       id="g192"><g
         clip-path="url(#clipPath198)"
         id="g194"><path
           id="path200"
           style="fill:none;stroke:#41719c;stroke-width:1;stroke-linecap:butt;stroke-linejoin:miter;stroke-miterlimit:10;stroke-dasharray:none;stroke-opacity:1"
           d="M 61.132,60.48 59.707,90.209 75.805,115.24 Z" /></g></g><g
       id="g202"><g
         clip-path="url(#clipPath208)"
         id="g204"><path
           id="path210"
           style="fill:#bdd7ee;fill-opacity:1;fill-rule:evenodd;stroke:none"
           d="M 52.12,53.133 53.545,23.405 37.447,-1.6281 Z" /></g></g><g
       id="g212"><g
         clip-path="url(#clipPath218)"
         id="g214"><path
           id="path220"
           style="fill:none;stroke:#41719c;stroke-width:1;stroke-linecap:butt;stroke-linejoin:miter;stroke-miterlimit:10;stroke-dasharray:none;stroke-opacity:1"
           d="M 52.12,53.133 53.545,23.405 37.447,-1.6281 Z" /></g></g><g
       id="g222"><g
         clip-path="url(#clipPath228)"
         id="g224"><path
           id="path230"
           style="fill:#9dc3e6;fill-opacity:1;fill-rule:evenodd;stroke:none"
           d="m 62.365,57.735 13.63,26.458 26.455,13.63 z" /></g></g><g
       id="g232"><g
         clip-path="url(#clipPath238)"
         id="g234"><path
           id="path240"
           style="fill:none;stroke:#41719c;stroke-width:1;stroke-linecap:butt;stroke-linejoin:miter;stroke-miterlimit:10;stroke-dasharray:none;stroke-opacity:1"
           d="m 62.365,57.735 13.63,26.458 26.455,13.63 z" /></g></g><g
       id="g242"><g
         clip-path="url(#clipPath248)"
         id="g244"><path
           id="path250"
           style="fill:#9dc3e6;fill-opacity:1;fill-rule:evenodd;stroke:none"
           d="M 50.887,55.878 37.257,29.42 10.799,15.79 Z" /></g></g><g
       id="g252"><g
         clip-path="url(#clipPath258)"
         id="g254"><path
           id="path260"
           style="fill:none;stroke:#41719c;stroke-width:1;stroke-linecap:butt;stroke-linejoin:miter;stroke-miterlimit:10;stroke-dasharray:none;stroke-opacity:1"
           d="M 50.887,55.878 37.257,29.42 10.799,15.79 Z" /></g></g></g></svg>